<svg xmlns="http://www.w3.org/2000/svg" width="21.699" height="27.199" viewBox="0 0 21.699 27.199">
  <g id="fix_right2" transform="translate(-25.15 -16.15)">
    <path id="パス_173" data-name="パス 173" d="M40,17a6,6,0,0,0-5,9.314V26c-.437-3.125,3-4.562,6-4a3.48,3.48,0,0,0,4-2l.09-.166A5.989,5.989,0,0,0,40,17Z" transform="translate(-4)" fill="none" opacity="0.1"/>
    <circle id="楕円形_47" data-name="楕円形 47" cx="6" cy="6" r="6" transform="translate(30 17)" stroke-width="1.7" stroke="#fff" stroke-linecap="round" stroke-linejoin="round" fill="none"/>
    <path id="パス_174" data-name="パス 174" d="M45.962,23a3.48,3.48,0,0,1-4,2c-3-.562-6.437.875-6,4" transform="translate(-4.962 -3)" fill="none" stroke="#fff" stroke-linecap="round" stroke-linejoin="round" stroke-width="1.7"/>
    <path id="パス_175" data-name="パス 175" d="M46,57.5v-6c0-2.485-4.477-4.5-10-4.5s-10,2.015-10,4.5v6Z" transform="translate(0 -15)" fill="none" stroke="#fff" stroke-linecap="round" stroke-linejoin="round" stroke-width="1.7"/>
  </g>
</svg>
