<svg xmlns="http://www.w3.org/2000/svg" width="23.154" height="15" viewBox="0 0 23.154 15">
  <g id="head_icon2" transform="translate(-200.259 -206.429)">
    <path id="パス_1346" data-name="パス 1346" d="M213.934,218.318a2.545,2.545,0,0,1-1.764-.7l-8-7.658a.606.606,0,0,1-.063-.766.427.427,0,0,1,.661-.073l8,7.658a1.724,1.724,0,0,0,2.314.013l8.184-7.675a.427.427,0,0,1,.66.081.6.6,0,0,1-.07.765l-8.184,7.675A2.536,2.536,0,0,1,213.934,218.318Z" transform="translate(-2.065 -1.319)" fill="#009fe8" stroke="#333" stroke-width="1"/>
    <path id="パス_1345" data-name="パス 1345" d="M220.535,220.929h-17.4a2.381,2.381,0,0,1-2.379-2.379v-9.243a2.381,2.381,0,0,1,2.379-2.379h17.4a2.381,2.381,0,0,1,2.379,2.379v9.243A2.381,2.381,0,0,1,220.535,220.929Zm-17.4-13.049a1.429,1.429,0,0,0-1.427,1.427v9.243a1.429,1.429,0,0,0,1.427,1.427h17.4a1.429,1.429,0,0,0,1.427-1.427v-9.243a1.429,1.429,0,0,0-1.427-1.427Z" transform="translate(0 0)" stroke="#333" stroke-width="1"/>
  </g>
</svg>
