<svg xmlns="http://www.w3.org/2000/svg" width="17.453" height="17.482" viewBox="0 0 17.453 17.482">
  <g id="Group_1459" data-name="Group 1459" transform="translate(-5.42 -143.809)">
    <g id="Group_1" data-name="Group 1" transform="translate(5.42 143.809)">
      <path id="Path_1" data-name="Path 1" d="M1014.134,55.482h-7.3a5.081,5.081,0,0,1-5.076-5.075V43.075A5.081,5.081,0,0,1,1006.832,38h7.3a5.081,5.081,0,0,1,5.075,5.075v7.332A5.081,5.081,0,0,1,1014.134,55.482Zm-7.3-15.883a3.48,3.48,0,0,0-3.476,3.476v7.332a3.48,3.48,0,0,0,3.476,3.476h7.3a3.48,3.48,0,0,0,3.476-3.476V43.075a3.48,3.48,0,0,0-3.476-3.476Z" transform="translate(-1001.756 -38)" fill="#333"/>
      <path id="Path_2" data-name="Path 2" d="M1026.12,66.9a4.471,4.471,0,1,1,4.471-4.471A4.476,4.476,0,0,1,1026.12,66.9Zm0-7.375a2.9,2.9,0,1,0,2.9,2.9A2.908,2.908,0,0,0,1026.12,59.527Z" transform="translate(-1017.394 -53.691)" fill="#333"/>
      <path id="Path_3" data-name="Path 3" d="M1061.608,53.23a1.066,1.066,0,1,1-1.066-1.066A1.066,1.066,0,0,1,1061.608,53.23Z" transform="translate(-1047.127 -49.134)" fill="#333"/>
    </g>
  </g>
</svg>
