<svg xmlns="http://www.w3.org/2000/svg" width="19.127" height="15.557" viewBox="0 0 19.127 15.557">
  <path id="Path_5" data-name="Path 5" d="M1171.46,47.32l.019,0a3.93,3.93,0,0,1,6.692-3.582,7.856,7.856,0,0,0,2.079-.73c.136-.066.273-.132.408-.2a3.918,3.918,0,0,1-1.237,1.8,3.565,3.565,0,0,1-.485.333l.035-.005c-.012.007-.021.017-.033.024a7.853,7.853,0,0,0,1.848-.455c.131-.045.263-.091.393-.142a7.987,7.987,0,0,1-1.944,2.012q.011.253.011.508a11.169,11.169,0,0,1-17.194,9.409,8.021,8.021,0,0,0,.937.055,7.87,7.87,0,0,0,4.013-1.1,8.311,8.311,0,0,0,.864-.564l-.022,0,.022-.016a3.87,3.87,0,0,1-3.657-2.726,3.7,3.7,0,0,0,1.484-.013c.092-.013.184-.024.275-.038-.012,0-.022-.008-.034-.01l.038-.008a3.93,3.93,0,0,1-3.151-3.851c0-.015,0-.03,0-.044l0,0a3.908,3.908,0,0,0,1.4.455c.123.021.247.04.37.05l-.024-.018.034,0a3.909,3.909,0,0,1-1.336-5c.042-.079.078-.159.126-.236a11.15,11.15,0,0,0,7.11,4c.319.046.638.088.962.106Z" transform="translate(-1162.052 -42.5)" fill="#333"/>
</svg>
