<svg xmlns="http://www.w3.org/2000/svg" xmlns:xlink="http://www.w3.org/1999/xlink" width="248.279" height="80" viewBox="0 0 248.279 80">
  <defs>
    <linearGradient id="linear-gradient" x1="0.251" y1="0.192" x2="0.345" y2="0.338" gradientUnits="objectBoundingBox">
      <stop offset="0.002" stop-color="#898a8a"/>
      <stop offset="0.95" stop-color="#fff" stop-opacity="0"/>
    </linearGradient>
    <linearGradient id="linear-gradient-2" x1="0.741" y1="0.893" x2="0.616" y2="0.676" xlink:href="#linear-gradient"/>
  </defs>
  <g id="グループ_20460" data-name="グループ 20460" transform="translate(-20 -20)">
    <g id="グループ_20456" data-name="グループ 20456">
      <path id="パス_50025" data-name="パス 50025" d="M150.325,39.278a1.091,1.091,0,0,1,.326.13,4.919,4.919,0,0,1,1.107.651,1.432,1.432,0,0,0,.326.261c.13.065.26.065.391.195.456.26.912.651,1.432.912.717.781,1.564,1.432,2.345,2.214.717.912,1.5,1.758,2.214,2.8.521.652.846,1.5,1.432,2.215a6.787,6.787,0,0,0,.456.976c.13.131.13.391.261.521a2.721,2.721,0,0,0,.261.456c.065.2.065.326.13.521,0,.065.065.131.131.2.13.26.13.651.259.977a15.837,15.837,0,0,1,.586,1.888v.391c.066.521.261,1.107.327,1.628.064.782.259,1.628.259,2.6a33.759,33.759,0,0,1-.455,5.21,8.836,8.836,0,0,0-.326,1.238c-.064.26-.26.52-.325.846a3.234,3.234,0,0,1-.261.847,12.031,12.031,0,0,1-.976,2.279c0,.261-.2.325-.261.521-.066.131-.066.261-.13.326-.065.195-.261.26-.326.456a.239.239,0,0,1-.065.195c-.065.2-.26.326-.39.521a2.327,2.327,0,0,1-.326.521c-.327.455-.586.977-.913,1.368a9.621,9.621,0,0,1-1.106,1.172c-.065.26-.261.326-.456.456a1.532,1.532,0,0,1-.195.326c-.391.39-.847.716-1.238,1.106-.456.391-.912.717-1.3,1.042-.066.065-.13.131-.2.195-.195.131-.39.2-.586.327a18.7,18.7,0,0,1-1.888,1.172,15.7,15.7,0,0,1-1.824.846c-.326.131-.651.261-1.043.391a24.933,24.933,0,0,1-3.125.977c-.782,0-1.563.325-2.41.391a3.494,3.494,0,0,0-.846.064c-.326,0-.652-.064-.977-.064a13.8,13.8,0,0,1-1.628,0,17.927,17.927,0,0,1-3.191-.391,1.073,1.073,0,0,1-.326-.131c-.065,0-.2.066-.26,0-.391,0-.717-.26-1.108-.325h-.26c-.13-.065-.2-.131-.326-.195s-.26,0-.325-.066a2.172,2.172,0,0,1-.782-.325c-.456,0-.586-.26-.977-.326-.521-.261-1.107-.52-1.628-.781a10.549,10.549,0,0,1-1.172-.651c-.13-.066-.2-.2-.326-.261l-.39-.195c-.717-.457-1.3-1.107-2.084-1.563,0-.065-.066-.065-.066-.131a13.731,13.731,0,0,1-1.758-1.628c-.195-.26-.521-.39-.651-.716-.065-.065-.131-.065-.2-.131-.586-.846-1.237-1.693-1.888-2.539a1.413,1.413,0,0,0-.326-.521,3.97,3.97,0,0,0-.586-1.042c0-.261-.261-.326-.195-.586-.521-.717-.717-1.693-1.173-2.475-.195-1.107-.716-2.214-.846-3.386a1.277,1.277,0,0,1-.065-.456,2.887,2.887,0,0,1-.066-.717c0-.065-.065-.2-.065-.26v-.261c0-.325-.195-.586-.064-.912a10.465,10.465,0,0,1-.131-2.084v-.521c0-.26.065-.521.065-.846.066-.456.13-.847.195-1.3s.131-.846.2-1.3c0-.13.131-.261.131-.456.065-.065,0-.195.065-.261.064-.455.26-.846.325-1.237.26-.651.456-1.368.716-2.084a11.377,11.377,0,0,0,.586-1.3c.2-.261.261-.587.456-.847.065-.13.131-.326.261-.39.065-.392.39-.652.521-.913.13-.195.325-.455.456-.651.065-.065.065-.195.13-.325.13-.2.325-.326.456-.521a23.407,23.407,0,0,1,1.628-1.954,11.277,11.277,0,0,1,1.563-1.5c.065-.065.195-.13.26-.195a6.778,6.778,0,0,1,1.3-.977,29.771,29.771,0,0,1,3.386-2.149,5.542,5.542,0,0,0,1.433-.587.589.589,0,0,0,.326-.065c.065,0,.2-.13.26-.13a.71.71,0,0,1,.326-.065c.716-.195,1.563-.521,2.344-.716a4.378,4.378,0,0,0,.977-.2,34.294,34.294,0,0,1,3.647-.325,34.389,34.389,0,0,1,3.712.26,2.883,2.883,0,0,0,.652.131,16.5,16.5,0,0,1,3.841,1.172A9.474,9.474,0,0,1,150.325,39.278Zm-11.982,5.47a10.328,10.328,0,0,0-2.606.521,11,11,0,0,0-1.953.847c-.521.26-.977.651-1.5.846a12.9,12.9,0,0,0-3.321,3.452c-.131.26-.2.456-.326.716a1.426,1.426,0,0,0-.261.326.239.239,0,0,0-.065.195c-.065.131-.2.261-.26.391v.195c-.065.131-.2.2-.2.261-.065.065,0,.13-.065.195-.065.326-.325.652-.391.912a12.056,12.056,0,0,0-.586,2.735,8.824,8.824,0,0,0-.195,2.6c0,.2-.065.391-.065.586,0,.131.065.2.065.326a17.2,17.2,0,0,0,.13,1.824,2.871,2.871,0,0,1,.131,1.042,23.031,23.031,0,0,0,1.172,3.191c.325.781.912,1.433,1.237,2.149.065.065.2.065.2.13a.336.336,0,0,1,.131.261,11.625,11.625,0,0,0,2.8,2.539,2.885,2.885,0,0,0,.717.522,8.075,8.075,0,0,0,2.6,1.237c.131.195.456.13.782.261a6.955,6.955,0,0,0,.782.195,8.358,8.358,0,0,0,1.237.26,14.022,14.022,0,0,0,2.344.065c.521-.065,1.042-.195,1.563-.261h.326c.326-.064.716-.195,1.042-.259a23.757,23.757,0,0,0,2.279-.847,7,7,0,0,0,1.173-.717h.2a1.564,1.564,0,0,1,.52-.39,1.764,1.764,0,0,0,.392-.326,8.414,8.414,0,0,1,.977-.651.642.642,0,0,1,.26-.326l.782-.781c.13-.2.326-.326.39-.586.391-.261.522-.782.912-1.108v-.195a14.889,14.889,0,0,0,1.042-1.693c.066-.391.325-.652.325-1.107a9.759,9.759,0,0,0,.782-2.215c.065-.325.065-.716.131-1.042q.1-.684.195-1.367a2.759,2.759,0,0,0-.066-.326v-.26a10.384,10.384,0,0,0,0-1.433,7.369,7.369,0,0,1-.2-1.172c-.13-.261-.065-.587-.195-.912,0-.065-.066-.065-.066-.13v-.2c-.064-.13-.195-.26-.129-.456a17.665,17.665,0,0,0-.782-1.953c0-.131-.065-.131-.065-.261-.065-.065-.13-.26-.195-.326,0-.13-.066-.13-.066-.195a11.172,11.172,0,0,0-2.084-3c-.325-.586-.976-.911-1.432-1.432-.326-.131-.456-.391-.782-.521a3.482,3.482,0,0,1-.781-.587c-.261-.13-.521-.195-.781-.325l-.2-.2c-.13-.065-.391-.065-.521-.13a5.969,5.969,0,0,0-.912-.456,6.823,6.823,0,0,0-1.107-.26,18.612,18.612,0,0,0-4.363-.586A7.95,7.95,0,0,0,138.343,44.748Z" fill="#231815"/>
      <path id="パス_50026" data-name="パス 50026" d="M199.169,63.113c0-.26.13-.456,0-.716a28.3,28.3,0,0,0,0-3.321c0-.326.065-.652.065-.977V55.95c0-.782-.065-1.5,0-2.215,0-.065.065-.195.065-.26v-.391a10.107,10.107,0,0,1-.065-1.433,1.588,1.588,0,0,0,0-.781,3.691,3.691,0,0,0,0-.847,1.458,1.458,0,0,0,0-.912,4.371,4.371,0,0,0,0-1.3,17.1,17.1,0,0,0,.065-1.824v-1.3a1.773,1.773,0,0,1,0-.586,18.262,18.262,0,0,1,0-1.889c0-.586.065-1.367,0-2.018,0-.131.065-.326.065-.457,0-.065-.065-.129-.065-.2,0-.13.065-.195.065-.326A6.607,6.607,0,0,0,199.3,38.1c.065-.13.065-.456.131-.585.13-.2.52-.131.911-.131a4.323,4.323,0,0,0,.977-.065c1.953.065,4.428.13,6.317.065.131.065.39.065.521.195.065,1.173-.065,2.41,0,3.582,0,.261.13.456-.065.651.13,5.145-.066,10.29.065,15.305,0,.26-.065.521-.065.781.065,1.433,0,2.931,0,4.364V64.09c-.066,2.149,0,4.429-.066,6.643,0,1.953-.064,3.712-.064,5.8,0,.325.064.652.064.977a10.264,10.264,0,0,0-.064,1.433c0,.195.064.39.064.651,0,.13-.064.326-.064.521-.066.391,0,.651-.326.782-1.758-.066-3.451-.066-5.21,0-.261,0-.586-.066-.847-.066-.586,0-1.562.195-2.018-.065-.326-.2-.521-.651-.782-.977-.131-.2-.26-.325-.391-.52a2.7,2.7,0,0,0-.651-.847,1.187,1.187,0,0,0-.456-.651,1.648,1.648,0,0,0-.586-.847.238.238,0,0,0-.065-.195c-.326-.327-.456-.717-.781-1.042-.066-.131-.2-.261-.261-.391a3.643,3.643,0,0,0-.325-.521c-.131-.2-.261-.326-.391-.521a2.71,2.71,0,0,1-.457-.717,1.755,1.755,0,0,1-.52-.651c-.716-.977-1.433-1.889-2.019-2.865a20.777,20.777,0,0,0-1.433-1.889,2.73,2.73,0,0,0-.716-1.107,12.118,12.118,0,0,0-.782-1.172,4.585,4.585,0,0,0-.717-.977,1.172,1.172,0,0,0-.39-.586c-.456-.846-1.172-1.5-1.628-2.345-.651-.781-1.107-1.693-1.758-2.41,0-.13-.065-.13-.065-.195-.587-.781-1.108-1.563-1.628-2.344-.782-.847-1.3-1.954-2.084-2.8,0-.2-.066-.2-.131-.325-.13-.131-.195-.261-.325-.391a3.586,3.586,0,0,0-.326-.521c-.066-.065-.13-.13-.2-.13-.13-.131-.13-.326-.261-.456a6.942,6.942,0,0,0-.585-.717c-.26.261-.13.912-.13,1.5,0,.651-.066,1.238-.066,1.824,0,.13.066.26.066.39-.066.652-.066,1.368-.066,2.019,0,.131.066.326.066.456a1.882,1.882,0,0,0-.13.586c.064.782,0,1.628,0,2.6,0,1.824,0,3.712.064,5.6,0,.261-.064.586-.064.847a7.153,7.153,0,0,1,0,1.172,10.693,10.693,0,0,1,0,1.433c0,.13-.066.26,0,.325a11.335,11.335,0,0,0,0,1.5v3.582a6.938,6.938,0,0,0,0,1.172v.781a24.955,24.955,0,0,1-.131,3.126,1.379,1.379,0,0,1-.781.2h-2.15a2.815,2.815,0,0,1-.325-.065c-1.563.065-3.321.065-4.559.065-.39,0-.846,0-.976-.26,0-1.759.13-3.062,0-4.885.064-1.5.064-3.256.064-5.014a18.586,18.586,0,0,1,0-1.889c0-.195-.064-.391-.064-.521,0-.065.064-.13.13-.195a.23.23,0,0,0-.066-.131,14.525,14.525,0,0,0-.064-1.693,1.94,1.94,0,0,0,.13-.586c-.066-.195-.13-.325,0-.521-.2-.26,0-.651-.13-.977,0-.13.13-.13.13-.195-.13-.586.065-1.172-.13-1.628a.487.487,0,0,0,0-.586,13.743,13.743,0,0,0,.064-2.345c0-.716,0-1.368-.064-2.084a1.875,1.875,0,0,1,.13-.586c.065-.326-.066-.651,0-.912-.13-.26,0-.651-.13-.846.2-.456,0-1.108.13-1.629-.066-1.693,0-3.451,0-5.4v-.912c0-.2.065-.39.065-.585,0-.261-.065-.522-.065-.847,0-.521.065-1.108.065-1.629,0-.911-.065-1.888-.065-2.8a.552.552,0,0,0,0-.456,15.9,15.9,0,0,0,.065-1.758c0-.391-.065-1.5.26-1.563.261-.13.651,0,1.107-.065.977,0,2.019,0,2.866.065.39,0,.846-.065,1.367-.065h2.345c.391,0,.716-.065.977.13.13.131.325.586.521.781a.84.84,0,0,1,.325.457c.457.521.782,1.237,1.238,1.693a14.366,14.366,0,0,1,1.107,1.628c.391.456.716,1.042,1.107,1.5a5.67,5.67,0,0,0,.781.976,1.624,1.624,0,0,0,.261.456c.065.131.2.261.261.391.13.13.13.391.325.456a4.867,4.867,0,0,0,.976,1.3l.2.391c1.173,1.759,2.541,3.322,3.647,5.21.13.065.13.2.261.261a3.27,3.27,0,0,0,.651.911,13.091,13.091,0,0,0,1.368,1.954.593.593,0,0,0,.26.391c.325.456.586.912.912,1.368.065.065.2.13.26.195.066.13.131.26.195.391a9.105,9.105,0,0,1,.717.977c.717.911,1.3,1.953,2.019,2.8,0,.261.261.391.39.521.066.13.066.26.131.326.13.195.325.39.456.586.455.586.911,1.3,1.432,1.888a.873.873,0,0,0,.457.522A16.784,16.784,0,0,0,199.169,63.113Z" fill="#231815"/>
      <path id="パス_50027" data-name="パス 50027" d="M233.75,54.256a7.089,7.089,0,0,1,1.172.065c.261,0,.521-.065.717-.065h.715c.327,0,.587.131.913,0,2.018.131,3.972.065,5.991.065a5.991,5.991,0,0,1,1.888.2,2.4,2.4,0,0,1,.131.781,5.532,5.532,0,0,0-.065,1.042c0,.065.065.131.065.2s-.065.195-.065.26a2.841,2.841,0,0,0,.065.326c0,.065-.065.13-.065.195a2.152,2.152,0,0,0,0,.651,7.2,7.2,0,0,0,.065,1.694c-.26.716.2,1.953-.326,2.475a9.785,9.785,0,0,1-2.41.065h-2.6c-.781-.065-1.563,0-2.344,0-1.367,0-2.735-.065-4.1,0-.586,0-1.3-.065-1.888-.065a3.234,3.234,0,0,0-1.172.13,14.071,14.071,0,0,0-.131,2.344c-.066,1.108,0,2.28,0,3.452v.716c0,.2-.066.456-.066.652,0,.456.066.781.066,1.3a4.586,4.586,0,0,0,.065,1.628,9.784,9.784,0,0,0,2.41.13,2.153,2.153,0,0,0,.651,0c1.563.066,3.386,0,5.014.066.978,0,2.084,0,2.8.065.391-.131,1.042.064,1.367-.065a13.111,13.111,0,0,0,1.628.065c.391,0,.652-.065.783.26.129,1.5-.066,2.931,0,4.363a27.034,27.034,0,0,1-.066,3.257,9.814,9.814,0,0,1-1.954,0c-.13,0-.13.13-.261.13s-.39-.13-.52-.13a3.7,3.7,0,0,1-.847,0c-.26,0-.52.064-.912.064h-3.32c-.2,0-.391-.064-.587-.064h-8.075c-1.238,0-2.67-.131-3.908-.131-.39,0-.587.065-1.173.065a14.762,14.762,0,0,1-1.693-.065c-.391,0-.52-.325-.586-.781,0-.13.066-.325.066-.521a14.523,14.523,0,0,0-.066-1.693V76.008a1.08,1.08,0,0,0,.131-.325c0-.131-.065-.327-.065-.522,0-.455-.066-.911-.066-1.367,0-.195.066-.391.066-.651-.066-1.368-.066-2.931,0-4.364,0-2.084-.066-4.038.065-6.056a2.162,2.162,0,0,1,0-.913c-.065-.976.064-1.888-.065-2.8,0-.065.065-.13.065-.195-.131-.781.13-1.889-.065-2.67a10.574,10.574,0,0,0,.065-2.019c.064-.26-.065-.521,0-.781,0-.066.064-.2.064-.261,0-.26-.129-.586,0-.781,0-.131-.064-.131-.064-.261a35.9,35.9,0,0,0,0-3.712,8.014,8.014,0,0,0,.064-1.237,6.444,6.444,0,0,0-.064-1.108c0-.325.13-.651.13-.976,0-.391-.066-.782-.066-1.238,0-.26.066-.52.066-.781,0-.065-.066-.131-.066-.2,0-.586.066-1.237.066-1.823v-.456c0-1.172.065-2.279,0-3.451.065-.131.13-.2.195-.326a17.281,17.281,0,0,1,2.606,0c.13,0,.195-.065.325-.065.456,0,.976.065,1.5.065a9.2,9.2,0,0,0,1.3-.065c2.539,0,5.079.195,7.489.065a12.538,12.538,0,0,0,2.214,0c.131,0,.261.065.39.065a16.512,16.512,0,0,1,2.54,0c1.433.065,2.6.065,3.843.065.455,0,1.367-.13,1.628.13.261.326.066,1.107.066,1.629v5.079c0,.326.064.651-.2.847s-.977,0-1.5,0c-3.582.13-6.578,0-10.355,0h-.781a.882.882,0,0,0-.586,0,8.707,8.707,0,0,0-1.3,0c-.456.195-.26,1.563-.26,2.214,0,.131-.065.326-.065.521,0,.065.065.13.065.2,0,.391-.065,1.042-.065,1.563v3.908c0,.456-.131.912.195,1.237C231.6,54.256,232.708,54.256,233.75,54.256Z" fill="#231815"/>
    </g>
    <g id="グループ_20457" data-name="グループ 20457">
      <path id="パス_50028" data-name="パス 50028" d="M265.143,40.94l.1,5.392c.028,1.788-.894,1.944-2.824,1.958l-.7-1.745a7.2,7.2,0,0,0,1.079.1c.581,0,.737-.142.737-.426l-.057-3.845a16.074,16.074,0,0,1-4.611,4.186l-1.235-1.235a11.9,11.9,0,0,0,4.9-4.384H258.1V39.421h5.335l-.056-2.682,1.646.085c.085,0,.326.014.326.185,0,.042-.013.085-.113.156-.156.113-.184.142-.184.212l.056,2.044h2.866V40.94Z" fill="#231815"/>
      <path id="パス_50029" data-name="パス 50029" d="M264.093,53.6c-.042.028-.157.114-.157.17v9.579h-1.915V52.966l1.774.185c.341.028.469.1.469.227C264.264,53.449,264.221,53.52,264.093,53.6Z" fill="#231815"/>
      <path id="パス_50030" data-name="パス 50030" d="M266.35,72.4a20.659,20.659,0,0,1-2.555,2.484v5.151h-1.632V76.061a14.138,14.138,0,0,1-3.448,1.647l-.98-1.4a12.82,12.82,0,0,0,6.642-4.214h-5.364V70.641H265.6a.9.9,0,0,0,.509-.2l1.178,1.263A3.942,3.942,0,0,0,266.35,72.4Zm-2.371-2.114a13.58,13.58,0,0,0-2.937-1.5l.7-1.377a11.725,11.725,0,0,1,3.051,1.562Zm3.222,7.522a9.692,9.692,0,0,0-2.754-2.243l.938-1.079a9.093,9.093,0,0,1,2.894,2.073Z" fill="#231815"/>
    </g>
    <g id="グループ_20459" data-name="グループ 20459">
      <path id="パス_50031" data-name="パス 50031" d="M60,100A40,40,0,0,1,26.242,38.537,4.777,4.777,0,0,1,34.3,43.669,30.449,30.449,0,1,0,60,29.555,4.777,4.777,0,0,1,60,20a40,40,0,1,1,0,80Z" fill="#0082cc"/>
      <path id="パス_50032" data-name="パス 50032" d="M81.389,92.767A4.777,4.777,0,0,1,78.482,84.2a30.485,30.485,0,0,0,9.824-35.431,4.777,4.777,0,1,1,8.879-3.527,40.1,40.1,0,0,1-1.463,32.776A40.353,40.353,0,0,1,84.288,91.783,4.755,4.755,0,0,1,81.389,92.767Z" fill="url(#linear-gradient)" style="mix-blend-mode: multiply;isolation: isolate"/>
      <path id="パス_50033" data-name="パス 50033" d="M91.4,48.808a4.777,4.777,0,0,1-4.26-2.609A30.339,30.339,0,0,0,60,29.555,4.777,4.777,0,0,1,60,20a40,40,0,0,1,35.659,21.86A4.78,4.78,0,0,1,91.4,48.808Z" fill="url(#linear-gradient-2)" style="mix-blend-mode: multiply;isolation: isolate"/>
      <path id="パス_50034" data-name="パス 50034" d="M71.115,55.133c-10.773,0-20.885-3.72-26.771-9.941-4.123-4.358-5.316-10.245-3.112-15.364C42.5,26.873,46.879,20,60,20a4.777,4.777,0,0,1,0,9.554c-7.653,0-9.582,3.1-9.991,4.051a4.635,4.635,0,0,0,1.276,5.02c4.354,4.6,12.812,7.317,21.545,6.914,12.079-.556,23.379-6.779,31.817-17.523a4.777,4.777,0,0,1,7.514,5.9C101.979,46.88,88.167,54.4,73.268,55.083,72.549,55.116,71.83,55.133,71.115,55.133Z" fill="#0082cc"/>
      <g id="グループ_20458" data-name="グループ 20458">
        <circle id="楕円形_823" data-name="楕円形 823" cx="4.777" cy="4.777" r="4.777" transform="translate(103.626 26.189)" fill="#0082cc"/>
        <path id="パス_50035" data-name="パス 50035" d="M111.413,30.967a3.01,3.01,0,1,1-3.01-3.01A3.01,3.01,0,0,1,111.413,30.967Z" fill="#fff"/>
      </g>
    </g>
  </g>
</svg>
