<svg xmlns="http://www.w3.org/2000/svg" width="904.039" height="78.633" viewBox="0 0 904.039 78.633">
  <g id="Group_20323" data-name="Group 20323" transform="translate(-231 -862.244)">
    <g id="Group_1842" data-name="Group 1842" transform="translate(-259.808 217.849)">
      <path id="Path_2877" data-name="Path 2877" d="M537.046,648.862l.46.187a6.93,6.93,0,0,1,1.573.924l.462.37.555.277c.649.37,1.3.924,2.036,1.294,1.017,1.109,2.218,2.035,3.329,3.144,1.017,1.3,2.126,2.5,3.142,3.976.742.924,1.2,2.128,2.035,3.145a9.209,9.209,0,0,0,.647,1.386l.37.742a4.035,4.035,0,0,0,.37.647c.093.277.093.462.185.739l.187.277c.185.37.185.927.367,1.386a22.356,22.356,0,0,1,.834,2.685v.555c.092.739.37,1.571.462,2.31.092,1.109.37,2.31.37,3.7a47.9,47.9,0,0,1-.647,7.4,12.3,12.3,0,0,0-.462,1.756c-.093.372-.37.742-.462,1.2a4.676,4.676,0,0,1-.369,1.2A17.163,17.163,0,0,1,551.1,691.4c0,.37-.277.462-.37.739l-.185.462c-.093.28-.37.37-.462.647l-.092.28c-.092.275-.37.462-.554.739a3.172,3.172,0,0,1-.465.739c-.462.647-.829,1.386-1.294,1.941a13.6,13.6,0,0,1-1.571,1.666c-.092.37-.37.462-.647.647l-.277.462c-.557.557-1.2,1.019-1.758,1.573-.647.555-1.294,1.017-1.851,1.479l-.275.277c-.28.185-.554.277-.834.462a25.686,25.686,0,0,1-2.68,1.666,22.142,22.142,0,0,1-2.59,1.2c-.462.185-.927.37-1.481.555a35.655,35.655,0,0,1-4.438,1.389c-1.109,0-2.218.462-3.422.555a4.885,4.885,0,0,0-1.2.092c-.462,0-.924-.092-1.386-.092a19.309,19.309,0,0,1-2.313,0,25.256,25.256,0,0,1-4.531-.555l-.462-.185h-.37c-.557,0-1.019-.372-1.573-.462h-.37l-.462-.28-.462-.092a3.083,3.083,0,0,1-1.109-.462c-.649,0-.834-.37-1.389-.462-.739-.37-1.571-.739-2.31-1.109a14.615,14.615,0,0,1-1.666-.927l-.462-.367-.554-.28c-1.017-.647-1.851-1.571-2.96-2.218l-.092-.185a19.839,19.839,0,0,1-2.5-2.313c-.277-.37-.739-.554-.924-1.016l-.277-.185c-.832-1.2-1.758-2.405-2.682-3.607a2.012,2.012,0,0,0-.462-.739,5.644,5.644,0,0,0-.832-1.481c0-.37-.37-.462-.277-.832-.739-1.019-1.017-2.405-1.663-3.514-.28-1.571-1.019-3.144-1.2-4.808a1.809,1.809,0,0,1-.092-.649,4.139,4.139,0,0,1-.092-1.017l-.092-.37v-.37c0-.462-.277-.832-.092-1.294a14.983,14.983,0,0,1-.185-2.96V675.4c0-.369.092-.742.092-1.2.092-.647.185-1.2.277-1.848s.185-1.2.277-1.851c0-.185.185-.37.185-.647l.092-.37c.092-.647.37-1.2.462-1.756.372-.926.647-1.943,1.019-2.96a16.261,16.261,0,0,0,.832-1.851c.277-.37.37-.832.647-1.2l.37-.555c.092-.554.555-.924.739-1.3.185-.275.464-.647.649-.924l.182-.462c.187-.277.465-.462.647-.739a34.335,34.335,0,0,1,2.313-2.775,15.855,15.855,0,0,1,2.22-2.125l.37-.28a9.753,9.753,0,0,1,1.848-1.386,42.786,42.786,0,0,1,4.81-3.052,7.833,7.833,0,0,0,2.033-.832l.462-.092.372-.185.462-.092c1.016-.277,2.218-.739,3.329-1.017a6.01,6.01,0,0,0,1.386-.28,32.915,32.915,0,0,1,10.45-.09,4.208,4.208,0,0,0,.924.185,23.518,23.518,0,0,1,5.455,1.663,13.542,13.542,0,0,1,3.332,1.479m-17.016,7.77a14.544,14.544,0,0,0-3.7.739,15.549,15.549,0,0,0-2.775,1.2,23.678,23.678,0,0,1-2.128,1.2,18.384,18.384,0,0,0-4.715,4.9c-.185.37-.277.647-.462,1.017l-.37.462-.093.277-.37.557v.275l-.277.372-.092.277c-.092.462-.465.924-.554,1.294a16.893,16.893,0,0,0-.832,3.884,12.44,12.44,0,0,0-.28,3.7c0,.277-.092.554-.092.832l.092.464a24.386,24.386,0,0,0,.185,2.588,4.019,4.019,0,0,1,.187,1.479,32.773,32.773,0,0,0,1.664,4.533c.462,1.109,1.294,2.033,1.756,3.052l.28.185.182.37a16.561,16.561,0,0,0,3.979,3.606,4.1,4.1,0,0,0,1.017.739,11.4,11.4,0,0,0,3.7,1.756c.185.28.647.187,1.109.37a9.976,9.976,0,0,0,1.111.28,11.568,11.568,0,0,0,1.756.367,19.8,19.8,0,0,0,3.329.092c.739-.092,1.479-.275,2.218-.367h.462c.462-.092,1.019-.28,1.481-.372a33.727,33.727,0,0,0,3.237-1.2,9.987,9.987,0,0,0,1.663-1.017h.277a2.25,2.25,0,0,1,.739-.555l.555-.462a12.326,12.326,0,0,1,1.389-.926l.37-.462,1.109-1.109c.185-.277.465-.462.557-.832.554-.37.739-1.109,1.294-1.573v-.277a20.919,20.919,0,0,0,1.479-2.4c.093-.555.462-.927.462-1.573a13.773,13.773,0,0,0,1.111-3.144c.092-.462.092-1.017.185-1.479.092-.647.185-1.3.277-1.943l-.093-.462v-.37a14.9,14.9,0,0,0,0-2.033,10.456,10.456,0,0,1-.277-1.666c-.185-.369-.092-.832-.277-1.294l-.092-.185v-.277c-.095-.185-.277-.37-.187-.649a24.773,24.773,0,0,0-1.109-2.773l-.092-.37-.277-.464L540,666.99a15.884,15.884,0,0,0-2.957-4.256c-.464-.832-1.389-1.294-2.036-2.033-.462-.185-.647-.554-1.109-.742a4.781,4.781,0,0,1-1.111-.832c-.37-.185-.739-.277-1.109-.462l-.277-.277-.739-.185a8.46,8.46,0,0,0-1.3-.647,9.67,9.67,0,0,0-1.571-.37,26.4,26.4,0,0,0-6.2-.832A11.3,11.3,0,0,0,520.03,656.632Z" transform="translate(0 -0.11)" fill="#231f20"/>
      <path id="Path_2878" data-name="Path 2878" d="M555.861,693.694c-.647.185-1.294.555-2.036.832a14.294,14.294,0,0,1-2.125.647,13.794,13.794,0,0,1-3.976.739,14.178,14.178,0,0,1-3.976-.277l-.37-.092-.462-.092-.187-.185h-.554l-.554-.277-.37-.092a19.117,19.117,0,0,1-2.405-1.109c-.647-.37-1.386-.924-2.033-1.386-.555-.464-1.2-.927-1.573-1.3l-.275-.462a6.133,6.133,0,0,0-.834-.739,1.862,1.862,0,0,0-.277,1.016c-.092.924.092,2.035,0,3.145s-.092,2.4-.092,3.7v8.045c0,.832-.185,1.756-.185,2.59a23.371,23.371,0,0,1,.092,2.5c-.185.832-1.573.647-2.4.647h-.742a3.1,3.1,0,0,0-.924,0c-2.313-.185-4.993,0-7.768-.092-.555-.465-.555-1.2-.462-2.22,0-.647-.092-1.386-.092-2.033a19.16,19.16,0,0,0,.185-1.943l-.185-.554c0-.28.092-.555.092-.739,0-.742-.092-1.573-.092-2.313,0-.927.092-1.756.092-2.683l-.092-.462c0-.462.185-.832.185-1.294v-3.514a4.518,4.518,0,0,1,.092-1.111c-.185-2.125,0-4.808-.092-6.841l.092-.372c-.185-1.2.092-2.5-.092-3.884,0-1.571.185-3.607.092-5.178a17.859,17.859,0,0,1,0-3.144l.092-.555c0-.277-.092-.462-.092-.739,0-.37.092-.834.092-1.3a4.873,4.873,0,0,1-.092-1.2l.092-.555v-3.7c0-.37.092-.647.092-.924a17.825,17.825,0,0,1-.092-2.22,8.463,8.463,0,0,1,.092-1.479c-.185-1.666.093-3.422-.092-5.085l.185-.649c2.218-.277,4.438,0,6.751-.185,1.479.277,2.682,0,4.253.185l.462.277a3.467,3.467,0,0,1,0,1.943c-.092.37,0,.832-.092,1.109l-.185.277a13.762,13.762,0,0,0,.185,1.943c.554-.28.739-.834,1.294-1.111.464-.924,1.386-1.294,1.943-2.126a10.474,10.474,0,0,0,1.848-1.2,4.9,4.9,0,0,1,.739-.462,6.463,6.463,0,0,1,.834-.465,3.351,3.351,0,0,0,.647-.277c.277-.092.462-.37.924-.277a9.858,9.858,0,0,1,2.313-.832,22.521,22.521,0,0,1,6.1-.185,2.565,2.565,0,0,0,.832.092c.834.185,1.481.37,2.313.555.739.462,1.666.647,2.313,1.017l.555.372a25.229,25.229,0,0,1,2.5,1.848,14.647,14.647,0,0,1,2.68,2.682,18.075,18.075,0,0,1,1.574,2.125,5.067,5.067,0,0,0,.832,1.389c.277,1.017.924,1.663,1.111,2.772.275.37.367,1.019.647,1.481a23.086,23.086,0,0,1,.739,7.306v2.033l-.092.37c-.092.187,0,.462,0,.742a2.682,2.682,0,0,0-.185.832,23.184,23.184,0,0,1-.742,2.96,9.462,9.462,0,0,1-.739,1.941c-.277.924-.739,1.574-1.017,2.405a6.378,6.378,0,0,0-1.2,1.848.935.935,0,0,0-.462.557,8.31,8.31,0,0,0-1.2,1.386l-4.438,3.606m-14.7-28.945-.277.185c-.462-.092-1.017.462-1.571.555a.722.722,0,0,1-.647.277,11.442,11.442,0,0,0-3.979,4.161c0,.28-.277.372-.37.555l-.093.554a4.049,4.049,0,0,0-.462,1.111,3.426,3.426,0,0,0-.185.832c0,.277-.093.37-.093.555a11.826,11.826,0,0,0,.277,3.7,10.074,10.074,0,0,0,3.514,5.457l.093.277a11.284,11.284,0,0,0,7.028,2.4,3.138,3.138,0,0,0,.924-.093c2.128-.182,3.791-1.479,5.18-2.5.277-.277.462-.647.832-.832.462-.647.832-1.2,1.294-1.851l.092-.277.277-.555a7.769,7.769,0,0,0,.647-2.405,5.933,5.933,0,0,0,.185-3.145v-.554a13.785,13.785,0,0,0-.832-2.957l-.185-.187c-.185-.647-.555-.924-.739-1.479-.647-.739-1.389-1.479-2.035-2.126a5.175,5.175,0,0,0-1.2-.742l-.37-.37a11.912,11.912,0,0,0-1.943-.647,8.254,8.254,0,0,0-2.68-.277c-.557.093-1.111.093-1.666.185A1.989,1.989,0,0,1,541.157,664.749Z" transform="translate(43.628 11.469)" fill="#231f20"/>
      <path id="Path_2879" data-name="Path 2879" d="M581.095,678.316c-1.941-.092-4.346-.092-6.471-.092l-.37.092-.277-.092c-.28,0-.647.092-.927.092a19.318,19.318,0,0,0-2.31-.092h-3.791c-1.017,0-2.22-.092-3.422-.092-1.386,0-2.867.092-4.253.092a17.8,17.8,0,0,0-2.22,0,4.58,4.58,0,0,0-1.941,0,6.109,6.109,0,0,0,.277,2.218,11.5,11.5,0,0,0,1.386,2.59,12.342,12.342,0,0,0,2.867,2.5,25.115,25.115,0,0,0,3.791.832,12,12,0,0,0,3.144-.185c.277-.092.647-.092.924-.185.462-.185.832-.37,1.294-.554a5.5,5.5,0,0,0,1.666-1.2c1.2-.739,1.756-2.033,2.68-2.96.187-.459.372-.922.742-.922.554,0,1.2.647,1.479.922a1.535,1.535,0,0,1,1.111.649,7.124,7.124,0,0,1,1.941,1.294c1.016.277,1.479,1.2,2.5,1.481.277.555,1.571.739,1.386,1.478,0,.462-.924,1.386-1.2,1.756-.554.649-.829,1.111-1.294,1.666l-.554.462c-.462.554-1.016,1.016-1.479,1.481-.277.182-.555.37-.832.554a27.224,27.224,0,0,1-3.422,2.218c-.464.185-.832.37-1.3.555a33.388,33.388,0,0,1-3.976,1.3l-.555.185h-.554l-.37.092a30.255,30.255,0,0,1-5,.092c-1.109-.185-2.31-.555-3.422-.739l-.275-.185c-2.128-.462-3.7-1.573-5.457-2.405l-.092-.185-.37-.185a28.477,28.477,0,0,1-3.514-3.145c-.185-.185-.277-.462-.647-.554,0-.277-.369-.37-.369-.647a17.575,17.575,0,0,1-1.666-2.22l-.092-.277c-.832-.832-1.017-2.405-1.756-3.422-.185-1.109-.649-2.128-.832-3.145a12.607,12.607,0,0,1-.185-1.756L543,677.3c-.185-.834,0-1.666-.185-2.5a1.273,1.273,0,0,0,0-.832c.185-.37,0-.742,0-1.109l.185-.372.095-.832L543,671.2a5.945,5.945,0,0,0,.28-.739,7.5,7.5,0,0,1,.647-2.59c.09-1.2.739-1.943,1.017-2.96a3.233,3.233,0,0,0,.462-.739l.093-.37.277-.277a6.138,6.138,0,0,1,.555-1.109l.277-.28c.187-.275.187-.555.462-.739a18.758,18.758,0,0,1,1.758-2.033l.277-.185a8.5,8.5,0,0,1,1.943-1.573,8.092,8.092,0,0,1,.924-.739l.462-.092c.277-.185.647-.37.924-.554a24.494,24.494,0,0,1,3.145-1.294c.37-.095.739-.28,1.109-.37.739-.185,1.389-.185,2.128-.372a41.854,41.854,0,0,1,4.9-.185c.37,0,.649-.092.924-.092l.465.185a20.583,20.583,0,0,1,4.253.739,10.023,10.023,0,0,1,1.756.742h.277a8.155,8.155,0,0,0,1.851.832,19.487,19.487,0,0,0,2.313,1.479,1.924,1.924,0,0,0,.647.555,3.909,3.909,0,0,0,.647.557l.37.277c.185.093.37.462.647.647a34.783,34.783,0,0,1,2.218,2.96,4.149,4.149,0,0,0,.557.647c.185.37.092.739.462.924a29.086,29.086,0,0,1,1.756,5.457c0,.462.277.924.277,1.294.092,1.294.372,2.68.372,4.069v1.2c0,.555.185,1.388-.28,1.758a16.83,16.83,0,0,1-3.052.092m-9.339-9.8c-.092-.462-.462-.924-.462-1.479a10.437,10.437,0,0,1-1.109-1.666c-.647-.462-1.019-1.2-1.943-1.386l-.185-.277a.624.624,0,0,1-.555-.37,10.759,10.759,0,0,0-2.59-.462c-.277,0-.554-.095-.832-.095a10.281,10.281,0,0,0-4.253.927,10.675,10.675,0,0,0-2.22,1.851,4.138,4.138,0,0,1-.555.647c-.37.462-.554.832-.924,1.386a5.816,5.816,0,0,0-.927,2.587c.372.372,1.2.28,1.851.372.739,0,1.481-.092,2.128-.092,1.386,0,2.68.185,4.069.092,1.941-.092,3.884.092,5.917.092a14.006,14.006,0,0,0,2.775-.185c.277-.372,0-.647-.092-1.109A2.569,2.569,0,0,0,571.756,668.513Z" transform="translate(74.465 12.42)" fill="#231f20"/>
      <path id="Path_2880" data-name="Path 2880" d="M590.154,672.843l.092-.37v-2.033a5.967,5.967,0,0,0-2.772-5.272,10.172,10.172,0,0,0-4.81-.647,9.354,9.354,0,0,0-1.571.277,7.687,7.687,0,0,0-4.161,3.145,5.5,5.5,0,0,0-.554,1.016c-.372,1.112-.372,2.22-.649,3.422l.093.462c-.093.927,0,2.128,0,3.329,0,.277-.093.462-.093.742-.092.275.093.554.093.829s-.093.557-.093.834c0,2.31-.092,4.716-.092,7.121,0,.185.092.37.092.647a6.214,6.214,0,0,1-.092,1.848c.185.372,0,1.019,0,1.574,0,.924.092,2.033.092,3.052a2.557,2.557,0,0,0-.092.832,2.851,2.851,0,0,1-.185,1.571c-1.663.095-3.7.095-5.642.095-.647,0-1.294-.095-1.941-.095l-.462.095a3.636,3.636,0,0,0-1.017,0,8.493,8.493,0,0,1-2.775-.28,5.939,5.939,0,0,1-.185-.647c.277-.37-.092-1.109.093-1.663-.185-.927.092-2.036-.093-2.96l.093-.555a1.9,1.9,0,0,1,0-1.019c-.093-2.5.092-4.623-.093-6.751.185-2.772.093-5.64,0-8.319l.185-.465c0-.277-.092-.554-.092-.832l.092-.647-.092-.555c0-1.388.092-2.775.092-4.161-.092-1.019.092-2.035,0-3.052,0-.557.092-1.2.092-1.851,0-.277-.092-.555-.092-.832,0-.832.092-1.664.092-2.5v-1.758c0-.832-.092-1.666.554-1.756a2.526,2.526,0,0,1,.834,0c1.294.09,2.68,0,4.066,0,1.481,0,2.87.09,4.164.09.832,0,2.31-.183,2.5.28.185.277.092.924.092,1.386v1.386c0,.465-.092.832.185,1.111a2.023,2.023,0,0,0,.927-.834,4.98,4.98,0,0,0,1.109-.832c.554-.462,1.2-.739,1.663-1.2.834-.37,1.574-.739,2.405-1.2.37.092.647-.182.924-.275a9.493,9.493,0,0,1,1.574-.372l.462-.185c1.017-.185,2.033-.185,3.144-.277a14.6,14.6,0,0,1,5.085.926c.462.182.739.37,1.2.555a9.643,9.643,0,0,1,1.666.924,3.078,3.078,0,0,0,.924.555,12.1,12.1,0,0,0,1.571,1.481c.28.46.647.832.927,1.294l.37.462.277.462.277.37a19.811,19.811,0,0,1,1.666,8.415c0,.462.09.742.09,1.109-.09,1.758-.09,3.794-.09,5.735v2.22c0,1.386,0,2.5-.092,3.884,0,.462.092.832.092,1.2-.092,2.405-.092,4.9-.092,7.213-.095,1.573,0,3.052-.187,4.623l-.367.277c-1.112,0-2.405-.092-3.517,0-2.033-.092-4.531,0-6.751-.092-.462-.09-.924.092-1.109-.185a5.9,5.9,0,0,1-.092-1.848,13.636,13.636,0,0,1,0-1.943c0-.277-.092-.554-.092-.832l.092-.462c.092-1.017,0-1.943,0-2.96v-.647c0-.924-.092-1.848,0-2.775,0-.185.092-.37.092-.647,0-.185-.092-.462-.092-.739v-4.531l.092-.462c0-.555-.092-1.2-.092-1.851a5.586,5.586,0,0,0,0-1.756c.185-.185,0-.557,0-.927" transform="translate(103.99 12.251)" fill="#231f20"/>
      <path id="Path_2881" data-name="Path 2881" d="M635.593,682.218c0-.367.185-.647,0-1.014a40.225,40.225,0,0,0,0-4.718c0-.462.092-.924.092-1.386v-3.052c0-1.109-.092-2.128,0-3.144l.093-.37v-.554a14.332,14.332,0,0,1-.093-2.035,2.249,2.249,0,0,0,0-1.109,5.212,5.212,0,0,0,0-1.2,2.071,2.071,0,0,0,0-1.3,6.2,6.2,0,0,0,0-1.848,24.213,24.213,0,0,0,.093-2.59V656.05a2.522,2.522,0,0,1,0-.834,25.856,25.856,0,0,1,0-2.682c0-.829.092-1.941,0-2.865l.092-.647-.092-.277.092-.465a9.5,9.5,0,0,0-.092-1.571l.185-.832c.185-.277.739-.185,1.294-.185a6.1,6.1,0,0,0,1.386-.092c2.777.092,6.289.185,8.971.092l.739.277c.092,1.663-.092,3.422,0,5.085,0,.37.185.649-.092.924.185,7.306-.092,14.614.092,21.732,0,.37-.092.742-.092,1.109.092,2.035,0,4.163,0,6.2v2.59c-.092,3.052,0,6.289-.092,9.434,0,2.773-.092,5.27-.092,8.23,0,.462.092.924.092,1.386a14.366,14.366,0,0,0-.092,2.036c0,.277.092.554.092.924,0,.185-.092.462-.092.739-.093.555,0,.924-.462,1.109-2.5-.092-4.9-.092-7.4,0-.37,0-.832-.092-1.2-.092-.834,0-2.22.28-2.867-.092-.462-.277-.739-.924-1.109-1.386-.185-.277-.37-.462-.557-.739a3.75,3.75,0,0,0-.924-1.2,1.689,1.689,0,0,0-.647-.927,2.347,2.347,0,0,0-.832-1.2l-.092-.277c-.462-.462-.647-1.016-1.109-1.481l-.37-.554a5.156,5.156,0,0,0-.465-.739c-.185-.277-.37-.462-.554-.739a3.786,3.786,0,0,1-.647-1.019,2.482,2.482,0,0,1-.739-.922c-1.019-1.389-2.033-2.682-2.867-4.071a28.789,28.789,0,0,0-2.036-2.68,3.851,3.851,0,0,0-1.017-1.574,17.343,17.343,0,0,0-1.109-1.663,6.635,6.635,0,0,0-1.016-1.389,1.653,1.653,0,0,0-.557-.832c-.647-1.2-1.663-2.125-2.31-3.329-.924-1.109-1.571-2.4-2.5-3.422l-.092-.277c-.832-1.109-1.571-2.218-2.31-3.329-1.111-1.2-1.851-2.772-2.96-3.974,0-.28-.092-.28-.185-.464l-.462-.555a5.658,5.658,0,0,0-.462-.739l-.28-.185-.37-.647a9.863,9.863,0,0,0-.832-1.019c-.37.37-.185,1.3-.185,2.128,0,.924-.092,1.756-.092,2.59l.092.555c-.092.924-.092,1.941-.092,2.865l.092.647a2.728,2.728,0,0,0-.185.834c.092,1.109,0,2.31,0,3.7,0,2.59,0,5.27.092,7.952,0,.37-.092.832-.092,1.2a10,10,0,0,1,0,1.666,14.9,14.9,0,0,1,0,2.033v.462a16.336,16.336,0,0,0,0,2.128v5.087a9.982,9.982,0,0,0,0,1.664v1.109a35.634,35.634,0,0,1-.185,4.438,1.951,1.951,0,0,1-1.109.277h-3.052l-.462-.09c-2.22.09-4.718.09-6.474.09-.554,0-1.2,0-1.389-.37,0-2.5.187-4.346,0-6.936.095-2.126.095-4.623.095-7.118a25.321,25.321,0,0,1,0-2.682c0-.277-.095-.557-.095-.739l.187-.277-.092-.187a20.875,20.875,0,0,0-.095-2.4,2.639,2.639,0,0,0,.187-.832c-.092-.277-.187-.464,0-.739-.28-.372,0-.927-.187-1.389l.187-.277c-.187-.832.092-1.666-.187-2.313a.683.683,0,0,0,0-.832,19.22,19.22,0,0,0,.095-3.329c0-1.016,0-1.941-.095-2.957a2.7,2.7,0,0,1,.187-.834c.092-.462-.092-.924,0-1.294-.187-.37,0-.924-.187-1.2.28-.647,0-1.571.187-2.31-.092-2.405,0-4.9,0-7.675v-1.3c0-.275.092-.555.092-.832,0-.37-.092-.739-.092-1.2,0-.739.092-1.573.092-2.313,0-1.294-.092-2.68-.092-3.976a.781.781,0,0,0,0-.647,22.532,22.532,0,0,0,.092-2.5c0-.554-.092-2.125.37-2.218.37-.185.924,0,1.571-.092,1.386,0,2.867,0,4.069.092.554,0,1.2-.092,1.943-.092h3.329c.555,0,1.016-.093,1.386.185.185.185.462.832.739,1.109a1.18,1.18,0,0,1,.462.647c.647.739,1.111,1.758,1.758,2.405a20.143,20.143,0,0,1,1.571,2.313c.554.647,1.016,1.479,1.573,2.126a8.111,8.111,0,0,0,1.109,1.386l.37.649.37.555c.185.185.185.554.462.647a6.973,6.973,0,0,0,1.386,1.848l.28.554c1.663,2.5,3.606,4.718,5.177,7.4l.37.372A4.638,4.638,0,0,0,623.2,669a18.919,18.919,0,0,0,1.943,2.775.849.849,0,0,0,.37.555c.462.647.832,1.294,1.294,1.941l.372.28.277.554a13.215,13.215,0,0,1,1.016,1.386c1.017,1.294,1.851,2.775,2.867,3.976,0,.37.37.554.555.742l.185.46c.185.28.462.554.647.834.647.832,1.3,1.848,2.035,2.68a1.224,1.224,0,0,0,.647.739,23.583,23.583,0,0,0,.185-3.7" transform="translate(147.334 0.379)" fill="#231f20"/>
      <path id="Path_2882" data-name="Path 2882" d="M659.128,678.316c-1.941-.092-4.346-.092-6.471-.092l-.37.092-.28-.092c-.277,0-.647.092-.924.092a19.338,19.338,0,0,0-2.313-.092h-3.792c-1.016,0-2.218-.092-3.419-.092-1.389,0-2.867.092-4.253.092a17.8,17.8,0,0,0-2.221,0,4.592,4.592,0,0,0-1.943,0,6.1,6.1,0,0,0,.277,2.218,11.6,11.6,0,0,0,1.389,2.59,12.324,12.324,0,0,0,2.865,2.5,25.174,25.174,0,0,0,3.791.832,11.992,11.992,0,0,0,3.144-.185c.28-.092.649-.092.927-.185.462-.185.832-.37,1.294-.554a5.5,5.5,0,0,0,1.666-1.2c1.2-.739,1.756-2.033,2.68-2.96.185-.459.37-.922.739-.922.555,0,1.2.647,1.481.922a1.525,1.525,0,0,1,1.109.649,7.134,7.134,0,0,1,1.943,1.294c1.017.277,1.479,1.2,2.5,1.481.277.555,1.574.739,1.389,1.478,0,.462-.926,1.386-1.2,1.756-.554.649-.832,1.111-1.294,1.666l-.554.462c-.465.554-1.019,1.016-1.479,1.481-.28.182-.557.37-.834.554a26.873,26.873,0,0,1-3.422,2.218c-.462.185-.832.37-1.294.555a33.532,33.532,0,0,1-3.976,1.3l-.555.185h-.557l-.367.092a30.256,30.256,0,0,1-5,.092c-1.109-.185-2.31-.555-3.422-.739l-.277-.185c-2.128-.462-3.7-1.573-5.455-2.405l-.092-.185-.372-.185a28.827,28.827,0,0,1-3.514-3.145c-.182-.185-.275-.462-.647-.554,0-.277-.367-.37-.367-.647a17.346,17.346,0,0,1-1.666-2.22l-.093-.277c-.832-.832-1.019-2.405-1.758-3.422-.182-1.109-.647-2.128-.832-3.145a12.625,12.625,0,0,1-.185-1.756l-.092-.37c-.185-.834,0-1.666-.185-2.5a1.272,1.272,0,0,0,0-.832c.185-.37,0-.742,0-1.109l.185-.372.092-.832-.092-.462a6.4,6.4,0,0,0,.277-.739,7.557,7.557,0,0,1,.649-2.59c.092-1.2.739-1.943,1.014-2.96a3.167,3.167,0,0,0,.464-.739l.092-.37.277-.277a6.136,6.136,0,0,1,.554-1.109l.277-.28c.185-.275.185-.555.462-.739a18.482,18.482,0,0,1,1.758-2.033l.277-.185a8.533,8.533,0,0,1,1.941-1.573,8.1,8.1,0,0,1,.927-.739l.462-.092c.277-.185.647-.37.924-.554a24.216,24.216,0,0,1,3.145-1.294c.369-.095.739-.28,1.109-.37.739-.185,1.386-.185,2.125-.372a41.9,41.9,0,0,1,4.9-.185c.37,0,.647-.092.924-.092l.462.185a20.552,20.552,0,0,1,4.253.739,9.968,9.968,0,0,1,1.758.742h.277a8.113,8.113,0,0,0,1.851.832,19.676,19.676,0,0,0,2.31,1.479,1.976,1.976,0,0,0,.647.555,3.84,3.84,0,0,0,.649.557l.367.277c.187.093.372.462.647.647a35.294,35.294,0,0,1,2.223,2.96,3.783,3.783,0,0,0,.555.647c.182.37.092.739.462.924a29.064,29.064,0,0,1,1.756,5.457c0,.462.277.924.277,1.294.092,1.294.37,2.68.37,4.069v1.2c0,.555.185,1.388-.277,1.758a16.83,16.83,0,0,1-3.052.092m-9.339-9.8c-.093-.462-.462-.924-.462-1.479a10.47,10.47,0,0,1-1.111-1.666c-.647-.462-1.016-1.2-1.941-1.386l-.185-.277a.624.624,0,0,1-.555-.37,10.782,10.782,0,0,0-2.59-.462c-.277,0-.554-.095-.832-.095a10.271,10.271,0,0,0-4.253.927,10.612,10.612,0,0,0-2.22,1.851,4.128,4.128,0,0,1-.555.647c-.37.462-.554.832-.924,1.386a5.789,5.789,0,0,0-.927,2.587c.372.372,1.2.28,1.851.372.739,0,1.479-.092,2.126-.092,1.389,0,2.682.185,4.071.092,1.941-.092,3.881.092,5.917.092a14.02,14.02,0,0,0,2.775-.185c.277-.372,0-.647-.093-1.109A2.568,2.568,0,0,0,649.79,668.513Z" transform="translate(186.204 12.42)" fill="#231f20"/>
      <path id="Path_2883" data-name="Path 2883" d="M666.975,660.762c.185-.462.555-.647.739-1.109a11.544,11.544,0,0,0,1.666-2.033c.647-.557,1.017-1.481,1.756-2.036.185-.555.647-.834,1.017-1.2a20.046,20.046,0,0,1,4.718-.093c.924,0,1.848-.092,2.865-.092a1.387,1.387,0,0,0,.649.092c.185,0,.462-.092.739-.092.555.092,1.017.092,1.571.185.372,0,.739-.093,1.111-.093.554.093,1.386-.092,1.941.28-.185.829-.832,1.294-1.294,1.941-.277.277-.37.647-.647.739-.277.554-.832.832-1.019,1.386-.277.095-.367.372-.555.649l-.647.647a2.876,2.876,0,0,1-.647.832l-.277.37c-1.294,1.389-2.405,2.96-3.7,4.253a11.457,11.457,0,0,1-1.294,1.666l-.464.462c-.182.185-.182.555-.462.647l-.185.277c-1.294,1.294-2.313,2.867-3.514,4.161-.277.555-.739.832-1.017,1.3.37.647.924,1.109,1.294,1.663a7.369,7.369,0,0,1,1.3,1.666l.462.46c.739.834,1.294,1.666,1.943,2.5.554.647,1.2,1.389,1.756,2.128.647.832,1.294,1.758,1.941,2.5.742.924,1.389,1.848,2.036,2.772a18.752,18.752,0,0,1,2.126,2.59l.462.462c.372.739,1.111,1.2,1.481,2.036a10.41,10.41,0,0,1,1.386,1.941,2.844,2.844,0,0,1-1.2.277c-1.294-.092-2.775-.092-4.161-.092-1.111,0-2.128.092-3.329,0-.832,0-1.666-.093-2.405-.093-.924,0-1.941.277-2.68-.37-.187-.277-.28-.555-.649-.739v-.185l-.37-.37c-.462-.832-1.2-1.3-1.571-2.128a5.385,5.385,0,0,1-1.017-1.386,1.41,1.41,0,0,1-.647-.924c-1.389-1.389-2.5-3.144-3.886-4.718l-.092-.277c-.462-.185-.554-.739-.924-1.017-.462.37-.739.924-1.2,1.386-.37.462-.739,1.017-1.111,1.574-.277.37-.647.554-.737,1.109a5.323,5.323,0,0,0-1.3,1.571l-.37.372-.462.554-.832,1.109a15.831,15.831,0,0,1-1.111,1.479.586.586,0,0,1-.462.557,16.343,16.343,0,0,1-1.479,2.033l-.37.185c-1.017,0-2.036.092-3.239,0-.182,0-.46-.092-.737-.092-.742,0-1.573.092-2.405.092-1.666,0-3.422-.092-4.9-.185a5.818,5.818,0,0,1-2.587-.185,3.169,3.169,0,0,1,1.016-1.666c.739-1.016,1.664-1.941,2.405-2.957.37-.277.554-.742.924-.924a9.379,9.379,0,0,1,.832-1.2,5.431,5.431,0,0,0,.739-.739l.095-.277.462-.37.185-.37.277-.185.37-.554c.277-.372.739-.832,1.109-1.3.185-.277.277-.462.555-.555,0-.37.37-.647.554-.832.187-.277.372-.462.555-.739.095-.185.372-.277.554-.554l.28-.462c.185-.28.554-.465.647-.834.277-.092.277-.37.462-.555l.37-.277c.37-.37.464-1.017,1.019-1.294l.093-.277a28.371,28.371,0,0,0,2.587-3.052c-.739-1.2-1.663-2.128-2.405-3.237-.829-1.017-1.663-2.128-2.4-3.145-.277-.37-.739-.647-.924-1.2-1.3-1.386-2.405-3.05-3.791-4.528v-.28c-.372-.277-.554-.739-.927-1.017-.37-.739-1.016-1.2-1.386-1.848-1.109-1.111-1.941-2.5-2.96-3.607,0-.372-.739-.739-.647-1.111,0-.37,1.016-.277,1.571-.37a19.292,19.292,0,0,0,2.313,0c.277,0,.462.092.647.092a18.6,18.6,0,0,1,2.313.092c1.571-.092,3.792,0,5.455,0,.647.092,1.758-.185,2.313.092l.647.739c.924,1.019,1.571,2.036,2.405,3.145a8.128,8.128,0,0,1,.739.927,1.567,1.567,0,0,0,.554.555c.277.739.924,1.109,1.3,1.848,1.016,1.016,1.663,2.405,2.772,3.422,1.3-1.109,2.128-2.773,3.329-3.976" transform="translate(213.594 12.312)" fill="#231f20"/>
      <path id="Path_2884" data-name="Path 2884" d="M679.1,650.939v.372l.093.275c0,.187-.093.465-.093.742l.093.462c0,.647-.093,1.663-.093,2.4l.093.465a6.047,6.047,0,0,1,0,1.294v2.313c0,.647-.093,1.571.28,1.663l.647.092a13.007,13.007,0,0,1,1.848.092,16.071,16.071,0,0,1,3.7.092,5.4,5.4,0,0,1,.185,2.128c0,.462.092.924.092,1.294,0,.462-.182.924-.182,1.294a32.523,32.523,0,0,1-.095,5.18,48.616,48.616,0,0,1-6.381.185l-.275.462.09.37c-.182,2.5-.09,4.9-.09,7.306-.092,1.943,0,3.607,0,5.734a28.577,28.577,0,0,0,0,3.976c-.28,4.069.09,8.23-.185,12.3a3.328,3.328,0,0,1-1.666.185,27.733,27.733,0,0,1-2.775,0l-.277-.092-.554.092a5.214,5.214,0,0,1-1.2,0,20.926,20.926,0,0,0-2.405,0,26.026,26.026,0,0,0-2.682,0l-.37-.277a22.643,22.643,0,0,1-.185-2.5c.092-1.2.092-2.867.092-4.253l-.092-.647a48.4,48.4,0,0,0,0-5.177c0-.372.092-.649-.093-.927a2.661,2.661,0,0,0,.093-1.2,24.743,24.743,0,0,0,0-3.7,1.978,1.978,0,0,0,0-.739l-.093-.277.093-.555c.092-.372-.093-.742,0-1.2v-.37c.092-1.571-.093-3.237.092-4.716a1.9,1.9,0,0,1,0-1.017c-.092-.28-.185-.647,0-.834-.277-.554.185-1.294-.185-1.848-1.2-.277-2.4,0-3.606-.277-.555-.465-.462-1.943-.277-2.5-.185-.924,0-2.033-.185-2.867a6.162,6.162,0,0,0,0-1.848c0-.37.185-.649.185-1.016a8.486,8.486,0,0,1-.092-1.481l.462-.462a24.741,24.741,0,0,0,3.7-.092,7.264,7.264,0,0,0,.093-3.145,11.941,11.941,0,0,0,0-3.144l.185-.277a15.73,15.73,0,0,1,0-2.957,13.523,13.523,0,0,1,.095-2.775c.555-.185,1.2,0,1.756-.185,1.756,0,3.514.09,5.362.09a19.843,19.843,0,0,1,2.313,0l.462.095c.647.092,1.3-.095,1.851.185a5.748,5.748,0,0,1,.182,2.218" transform="translate(245.917 4.472)" fill="#231f20"/>
      <path id="Path_2885" data-name="Path 2885" d="M704.748,670.125a10.083,10.083,0,0,1,1.666.092c.37,0,.739-.092,1.016-.092h1.017c.462,0,.834.185,1.3,0,2.865.185,5.64.092,8.507.092a8.555,8.555,0,0,1,2.683.277,3.459,3.459,0,0,1,.185,1.109,7.99,7.99,0,0,0-.092,1.481l.092.277-.092.37.092.462-.092.28a3.1,3.1,0,0,0,0,.924,10.27,10.27,0,0,0,.092,2.4c-.372,1.019.277,2.775-.464,3.514a13.853,13.853,0,0,1-3.419.093h-3.7c-1.109-.093-2.22,0-3.329,0-1.943,0-3.884-.093-5.827,0-.832,0-1.848-.093-2.682-.093a4.59,4.59,0,0,0-1.664.185,20.133,20.133,0,0,0-.185,3.329c-.092,1.571,0,3.237,0,4.9v1.017c0,.277-.092.647-.092.924,0,.647.092,1.111.092,1.851a6.569,6.569,0,0,0,.092,2.31,13.948,13.948,0,0,0,3.422.185,3.1,3.1,0,0,0,.924,0c2.22.092,4.808,0,7.121.092,1.386,0,2.96,0,3.976.093.555-.185,1.481.092,1.943-.093a18.524,18.524,0,0,0,2.31.093c.554,0,.926-.093,1.109.372.187,2.125-.092,4.161,0,6.194a38.1,38.1,0,0,1-.092,4.623,13.9,13.9,0,0,1-2.772,0l-.37.185-.739-.185a5.187,5.187,0,0,1-1.2,0c-.37,0-.739.092-1.294.092h-4.715c-.277,0-.557-.092-.832-.092H697.258c-1.756,0-3.791-.185-5.547-.185-.557,0-.832.092-1.666.092a20.917,20.917,0,0,1-2.4-.092c-.555,0-.742-.462-.834-1.109,0-.185.093-.462.093-.739a20.889,20.889,0,0,0-.093-2.405v-1.941l.187-.465c0-.185-.095-.462-.095-.739,0-.647-.093-1.294-.093-1.941,0-.277.093-.554.093-.927-.093-1.941-.093-4.159,0-6.194,0-2.96-.093-5.735.095-8.6a2.981,2.981,0,0,1,0-1.294c-.095-1.386.092-2.682-.095-3.976L687,676.6c-.187-1.109.185-2.682-.095-3.791A14.713,14.713,0,0,0,687,669.94c.092-.37-.095-.739,0-1.109l.092-.37c0-.37-.187-.832,0-1.111l-.092-.367a50.228,50.228,0,0,0,0-5.272,11.216,11.216,0,0,0,.092-1.758,8.98,8.98,0,0,0-.092-1.571c0-.462.185-.924.185-1.386,0-.554-.093-1.109-.093-1.756,0-.372.093-.742.093-1.111l-.093-.277c0-.834.093-1.756.093-2.59v-.647c0-1.664.092-3.237,0-4.9l.275-.462a24.343,24.343,0,0,1,3.7,0l.465-.095c.647,0,1.386.095,2.125.095a12.719,12.719,0,0,0,1.851-.095c3.606,0,7.213.28,10.635.095a17.794,17.794,0,0,0,3.144,0l.555.092a23.443,23.443,0,0,1,3.606,0c2.033.092,3.7.092,5.455.092.647,0,1.943-.185,2.313.182.37.464.093,1.573.093,2.313v7.213c0,.462.092.924-.277,1.2s-1.389,0-2.128,0c-5.085.185-9.341,0-14.7,0h-1.109a1.218,1.218,0,0,0-.832,0,12.031,12.031,0,0,0-1.851,0c-.647.277-.37,2.218-.37,3.145,0,.185-.092.46-.092.739l.092.277c0,.555-.092,1.479-.092,2.218v5.55c0,.647-.185,1.294.277,1.758,1.386.09,2.96.09,4.438.09" transform="translate(275.247 -0.761)" fill="#231f20"/>
      <path id="Path_2886" data-name="Path 2886" d="M731.463,660.762c.185-.462.557-.647.739-1.109a11.432,11.432,0,0,0,1.666-2.033c.647-.557,1.017-1.481,1.758-2.036.182-.555.647-.834,1.016-1.2a20.026,20.026,0,0,1,4.716-.093c.924,0,1.848-.092,2.867-.092a1.371,1.371,0,0,0,.647.092c.185,0,.462-.092.739-.092.554.092,1.019.092,1.573.185.37,0,.739-.093,1.109-.093.555.093,1.386-.092,1.941.28-.185.829-.832,1.294-1.294,1.941-.277.277-.37.647-.647.739-.277.554-.832.832-1.017,1.386-.28.095-.37.372-.555.649-.187.185-.372.37-.647.647a2.933,2.933,0,0,1-.649.832l-.277.37c-1.294,1.389-2.405,2.96-3.7,4.253a11.458,11.458,0,0,1-1.294,1.666l-.464.462c-.182.185-.182.555-.46.647l-.187.277c-1.294,1.294-2.31,2.867-3.512,4.161-.28.555-.742.832-1.019,1.3.37.647.924,1.109,1.294,1.663a7.289,7.289,0,0,1,1.3,1.666l.462.46c.739.834,1.294,1.666,1.943,2.5.555.647,1.2,1.389,1.756,2.128.647.832,1.294,1.758,1.941,2.5.742.924,1.389,1.848,2.035,2.772a18.762,18.762,0,0,1,2.128,2.59l.462.462c.37.739,1.109,1.2,1.479,2.036a10.191,10.191,0,0,1,1.386,1.941,2.828,2.828,0,0,1-1.2.277c-1.294-.092-2.772-.092-4.161-.092-1.109,0-2.128.092-3.329,0-.832,0-1.663-.093-2.405-.093-.922,0-1.941.277-2.68-.37-.185-.277-.277-.555-.647-.739v-.185l-.372-.37c-.462-.832-1.2-1.3-1.571-2.128a5.387,5.387,0,0,1-1.016-1.386,1.416,1.416,0,0,1-.647-.924c-1.386-1.389-2.5-3.144-3.884-4.718l-.092-.277c-.462-.185-.555-.739-.927-1.017-.462.37-.739.924-1.2,1.386-.37.462-.739,1.017-1.109,1.574-.277.37-.649.554-.739,1.109a5.326,5.326,0,0,0-1.3,1.571l-.37.372-.462.554-.832,1.109a15.449,15.449,0,0,1-1.112,1.479.587.587,0,0,1-.459.557,16.625,16.625,0,0,1-1.481,2.033l-.37.185c-1.016,0-2.035.092-3.237,0-.185,0-.462-.092-.739-.092-.742,0-1.571.092-2.405.092-1.663,0-3.422-.092-4.9-.185a5.829,5.829,0,0,1-2.59-.185,3.16,3.16,0,0,1,1.019-1.666c.737-1.016,1.664-1.941,2.4-2.957.37-.277.555-.742.924-.924a9.177,9.177,0,0,1,.834-1.2,5.573,5.573,0,0,0,.739-.739l.092-.277.462-.37.185-.37.277-.185.37-.554c.277-.372.739-.832,1.111-1.3.182-.277.275-.462.555-.555,0-.37.37-.647.554-.832.185-.277.37-.462.555-.739.092-.185.37-.277.554-.554l.277-.462c.185-.28.555-.465.647-.834.277-.092.277-.37.465-.555l.367-.277c.372-.37.464-1.017,1.019-1.294l.092-.277a28.345,28.345,0,0,0,2.588-3.052c-.739-1.2-1.663-2.128-2.4-3.237-.832-1.017-1.663-2.128-2.405-3.145-.277-.37-.739-.647-.924-1.2-1.294-1.386-2.405-3.05-3.791-4.528v-.28c-.37-.277-.555-.739-.924-1.017-.37-.739-1.017-1.2-1.389-1.848-1.109-1.111-1.941-2.5-2.96-3.607,0-.372-.739-.739-.647-1.111,0-.37,1.019-.277,1.574-.37a19.252,19.252,0,0,0,2.31,0c.277,0,.462.092.649.092a18.56,18.56,0,0,1,2.31.092c1.573-.092,3.791,0,5.455,0,.65.092,1.758-.185,2.313.092l.647.739c.927,1.019,1.573,2.036,2.405,3.145a8.1,8.1,0,0,1,.739.927,1.57,1.57,0,0,0,.554.555c.277.739.927,1.109,1.3,1.848,1.017,1.016,1.663,2.405,2.775,3.422,1.294-1.109,2.126-2.773,3.327-3.976" transform="translate(300.525 11.654)" fill="#231f20"/>
      <path id="Path_2887" data-name="Path 2887" d="M761.521,693.694c-.647.185-1.294.555-2.033.832a14.409,14.409,0,0,1-2.128.647,13.792,13.792,0,0,1-3.976.739,14.183,14.183,0,0,1-3.976-.277l-.37-.092-.462-.092-.185-.185h-.554l-.555-.277-.372-.092a19.294,19.294,0,0,1-2.405-1.109c-.647-.37-1.386-.924-2.033-1.386-.554-.464-1.2-.927-1.573-1.3l-.275-.462a6.133,6.133,0,0,0-.834-.739,1.862,1.862,0,0,0-.277,1.016c-.093.924.092,2.035,0,3.145s-.093,2.4-.093,3.7v8.045c0,.832-.185,1.756-.185,2.59a23.438,23.438,0,0,1,.093,2.5c-.185.832-1.571.647-2.4.647h-.739a3.115,3.115,0,0,0-.927,0c-2.313-.185-4.993,0-7.767-.092-.555-.465-.555-1.2-.462-2.22,0-.647-.092-1.386-.092-2.033a19.145,19.145,0,0,0,.185-1.943l-.185-.554c0-.28.092-.555.092-.739,0-.742-.092-1.573-.092-2.313,0-.927.092-1.756.092-2.683l-.092-.462c0-.462.185-.832.185-1.294v-3.514a4.518,4.518,0,0,1,.092-1.111c-.185-2.125,0-4.808-.092-6.841l.092-.372c-.185-1.2.092-2.5-.092-3.884,0-1.571.185-3.607.092-5.178a17.859,17.859,0,0,1,0-3.144l.092-.555c0-.277-.092-.462-.092-.739,0-.37.092-.834.092-1.3a4.873,4.873,0,0,1-.092-1.2l.092-.555v-3.7c0-.37.092-.647.092-.924a17.825,17.825,0,0,1-.092-2.22,8.458,8.458,0,0,1,.092-1.479c-.185-1.666.092-3.422-.092-5.085l.185-.649c2.218-.277,4.438,0,6.751-.185,1.479.277,2.682,0,4.254.185l.462.277a3.471,3.471,0,0,1,0,1.943c-.092.37,0,.832-.092,1.109l-.185.277a13.788,13.788,0,0,0,.185,1.943c.554-.28.739-.834,1.294-1.111.465-.924,1.389-1.294,1.943-2.126a10.473,10.473,0,0,0,1.848-1.2,4.913,4.913,0,0,1,.742-.462,6.437,6.437,0,0,1,.832-.465,3.34,3.34,0,0,0,.647-.277c.277-.092.462-.37.924-.277a9.862,9.862,0,0,1,2.313-.832,22.52,22.52,0,0,1,6.1-.185,2.581,2.581,0,0,0,.834.092c.832.185,1.479.37,2.31.555.739.462,1.666.647,2.313,1.017l.554.372a24.978,24.978,0,0,1,2.5,1.848,14.656,14.656,0,0,1,2.68,2.682,18.054,18.054,0,0,1,1.574,2.125,5.064,5.064,0,0,0,.832,1.389c.277,1.017.926,1.663,1.111,2.772.275.37.37,1.019.647,1.481a23.081,23.081,0,0,1,.739,7.306v2.033l-.092.37c-.092.187,0,.462,0,.742a2.686,2.686,0,0,0-.185.832,23.164,23.164,0,0,1-.739,2.96,9.45,9.45,0,0,1-.742,1.941c-.275.924-.739,1.574-1.016,2.405a6.377,6.377,0,0,0-1.2,1.848.944.944,0,0,0-.462.557,8.436,8.436,0,0,0-1.2,1.386l-4.438,3.606m-14.7-28.945-.277.185c-.462-.092-1.017.462-1.571.555a.722.722,0,0,1-.647.277,11.444,11.444,0,0,0-3.979,4.161c0,.28-.277.372-.367.555l-.092.554a3.982,3.982,0,0,0-.465,1.111,3.438,3.438,0,0,0-.185.832c0,.277-.092.37-.092.555a11.826,11.826,0,0,0,.277,3.7,10.076,10.076,0,0,0,3.514,5.457l.092.277a11.285,11.285,0,0,0,7.028,2.4,3.162,3.162,0,0,0,.927-.093c2.125-.182,3.791-1.479,5.178-2.5.277-.277.462-.647.832-.832.462-.647.832-1.2,1.294-1.851l.095-.277.275-.555a7.7,7.7,0,0,0,.647-2.405,5.934,5.934,0,0,0,.187-3.145v-.554a13.778,13.778,0,0,0-.834-2.957l-.185-.187c-.185-.647-.554-.924-.739-1.479-.647-.739-1.386-1.479-2.036-2.126a5.12,5.12,0,0,0-1.2-.742l-.37-.37a11.96,11.96,0,0,0-1.941-.647,8.277,8.277,0,0,0-2.683-.277c-.554.093-1.109.093-1.663.185A2,2,0,0,1,746.817,664.749Z" transform="translate(332.707 10.812)" fill="#231f20"/>
      <path id="Path_2888" data-name="Path 2888" d="M786.754,678.316c-1.941-.092-4.346-.092-6.471-.092l-.37.092-.28-.092c-.277,0-.647.092-.924.092a19.339,19.339,0,0,0-2.313-.092h-3.791c-1.017,0-2.218-.092-3.419-.092-1.389,0-2.867.092-4.254.092a17.8,17.8,0,0,0-2.22,0,4.592,4.592,0,0,0-1.943,0,6.1,6.1,0,0,0,.277,2.218,11.587,11.587,0,0,0,1.389,2.59,12.326,12.326,0,0,0,2.865,2.5,25.184,25.184,0,0,0,3.792.832,11.99,11.99,0,0,0,3.144-.185c.28-.092.649-.092.927-.185.462-.185.832-.37,1.294-.554a5.492,5.492,0,0,0,1.666-1.2c1.2-.739,1.756-2.033,2.68-2.96.185-.459.37-.922.739-.922.554,0,1.2.647,1.481.922a1.525,1.525,0,0,1,1.109.649,7.138,7.138,0,0,1,1.943,1.294c1.016.277,1.478,1.2,2.5,1.481.277.555,1.573.739,1.389,1.478,0,.462-.927,1.386-1.2,1.756-.554.649-.832,1.111-1.294,1.666l-.555.462c-.464.554-1.019,1.016-1.481,1.481-.277.182-.554.37-.832.554a26.868,26.868,0,0,1-3.422,2.218c-.462.185-.831.37-1.294.555a33.523,33.523,0,0,1-3.976,1.3l-.554.185h-.557l-.367.092a30.258,30.258,0,0,1-5,.092c-1.109-.185-2.31-.555-3.422-.739l-.277-.185c-2.128-.462-3.7-1.573-5.455-2.405l-.092-.185-.372-.185a28.817,28.817,0,0,1-3.514-3.145c-.182-.185-.275-.462-.647-.554,0-.277-.37-.37-.37-.647a17.546,17.546,0,0,1-1.663-2.22l-.092-.277c-.832-.832-1.019-2.405-1.758-3.422-.185-1.109-.647-2.128-.832-3.145a12.607,12.607,0,0,1-.185-1.756l-.093-.37c-.185-.834,0-1.666-.185-2.5a1.275,1.275,0,0,0,0-.832c.185-.37,0-.742,0-1.109l.185-.372.093-.832-.093-.462a6.371,6.371,0,0,0,.277-.739,7.612,7.612,0,0,1,.647-2.59c.095-1.2.742-1.943,1.016-2.96a3.177,3.177,0,0,0,.465-.739l.092-.37.277-.277a6.122,6.122,0,0,1,.555-1.109l.277-.28c.185-.275.185-.555.462-.739a18.54,18.54,0,0,1,1.758-2.033l.277-.185A8.54,8.54,0,0,1,756.7,657.6a7.9,7.9,0,0,1,.927-.739l.462-.092c.277-.185.647-.37.924-.554a24.218,24.218,0,0,1,3.144-1.294c.37-.095.739-.28,1.109-.37.739-.185,1.386-.185,2.125-.372a41.9,41.9,0,0,1,4.9-.185c.37,0,.647-.092.924-.092l.462.185a20.553,20.553,0,0,1,4.253.739,9.973,9.973,0,0,1,1.758.742h.277a8.1,8.1,0,0,0,1.851.832,19.691,19.691,0,0,0,2.31,1.479,1.972,1.972,0,0,0,.647.555,3.919,3.919,0,0,0,.647.557l.37.277c.188.093.372.462.647.647a35.387,35.387,0,0,1,2.223,2.96,3.774,3.774,0,0,0,.554.647c.182.37.092.739.462.924a29.059,29.059,0,0,1,1.756,5.457c0,.462.277.924.277,1.294.093,1.294.37,2.68.37,4.069v1.2c0,.555.185,1.388-.277,1.758a16.831,16.831,0,0,1-3.052.092m-9.339-9.8c-.092-.462-.462-.924-.462-1.479a10.461,10.461,0,0,1-1.111-1.666c-.647-.462-1.017-1.2-1.941-1.386l-.185-.277a.624.624,0,0,1-.554-.37,10.807,10.807,0,0,0-2.59-.462c-.277,0-.555-.095-.832-.095a10.271,10.271,0,0,0-4.253.927,10.6,10.6,0,0,0-2.22,1.851,4.141,4.141,0,0,1-.555.647c-.37.462-.555.832-.924,1.386a5.789,5.789,0,0,0-.927,2.587c.372.372,1.2.28,1.851.372.739,0,1.479-.092,2.125-.092,1.389,0,2.682.185,4.071.092,1.941-.092,3.881.092,5.917.092a14.018,14.018,0,0,0,2.775-.185c.277-.372,0-.647-.092-1.109A2.565,2.565,0,0,0,777.416,668.513Z" transform="translate(363.544 11.763)" fill="#231f20"/>
      <path id="Path_2889" data-name="Path 2889" d="M794.687,653.821c0,2.5-.092,4.9,0,7.121a12.338,12.338,0,0,1,0,1.851l-.092.37c0,.277.092.555.092.924l-.185.647c-.37.093-.647-.092-1.016-.185a20.7,20.7,0,0,0-3.422-.185,2.567,2.567,0,0,1-.832.092,3.31,3.31,0,0,1-1.019.277c-.37.093-.647,0-.832.277a7.515,7.515,0,0,0-3.144,1.756,4.4,4.4,0,0,0-.924.927,8.487,8.487,0,0,0-1.2,1.756l-.182.557-.28.367c-.185.464-.185,1.019-.367,1.666a16.164,16.164,0,0,0-.187,2.22c0,1.016-.092,2.218-.092,3.237v1.016c0,.277.092.462.092.739l-.092.462.092.37a3.5,3.5,0,0,0,0,1.386,12.808,12.808,0,0,0-.185,2.036c0,.647.092,1.389.092,2.128-.092,1.756,0,3.422-.092,4.993-.092,1.016.185,3.329-.277,3.607-.185.092-.37,0-.739,0h-6.381a14.912,14.912,0,0,0-2.033,0c-.739,0-2.035.185-2.405-.462,0-2.035.092-4.346,0-6.474a7.472,7.472,0,0,0,0-2.035,13.578,13.578,0,0,0,0-1.941c0-1.2.092-1.943.092-3.144a10.87,10.87,0,0,0-.092-2.405c.185-.367,0-.739,0-1.2,0-.554.185-1.109.185-1.663a45.033,45.033,0,0,1,0-5,8.872,8.872,0,0,1,0-2.218c-.092-2.313,0-4.718,0-7.028,0-.37.092-.832.092-1.389a31.188,31.188,0,0,1,.093-5.085l.37-.185c1.851.092,3.792,0,5.734,0a19.275,19.275,0,0,1,2.311,0,9.532,9.532,0,0,1,1.574.092c.462,0,1.2-.185,1.571.093a3.609,3.609,0,0,1,.185,1.479c0,.28.095.557.095.927a7.754,7.754,0,0,0-.095,1.479,12.724,12.724,0,0,0,.095,1.943c.367,0,.462-.554.647-.834a15.834,15.834,0,0,1,1.663-1.848l.554-.554.185-.37c.462-.092.739-.554,1.2-.647.554-.554,1.386-.742,1.941-1.2a7.875,7.875,0,0,0,1.571-.554,19.588,19.588,0,0,1,2.682-.554,7.012,7.012,0,0,1,2.775,0l.185.37" transform="translate(393.042 10.92)" fill="#231f20"/>
      <path id="Path_2890" data-name="Path 2890" d="M795.409,648.744a8.151,8.151,0,0,1,.832,2.4l.185.37a12.421,12.421,0,0,0,.093,1.851,7.17,7.17,0,0,1-7.306,6.474,6.971,6.971,0,0,1-3.144-.926c-.555-.37-1.017-.739-1.479-1.109-.277-.277-.462-.647-.739-.924l-.277-.277c-.277-.37-.277-.834-.65-1.111a2.22,2.22,0,0,0-.275-1.109,13.245,13.245,0,0,1-.28-2.773q.281-1.113.554-1.943c0-.185.28-.185.187-.555.462-.462.832-1.109,1.294-1.666.554-.37,1.109-.832,1.756-1.294.462-.185,1.019-.277,1.573-.462,2.033-.557,4.9.092,6.012,1.478.739.277,1.017,1.109,1.664,1.573M783.48,674.265c.185-.275-.092-.739.093-1.109-.185-.277,0-.554,0-.832l-.093-.647.093-.37-.093-.277c0-.465.093-.832.093-1.2,0-.462-.185-1.109.092-1.571a2.249,2.249,0,0,1,0-1.109,5.694,5.694,0,0,1,2.5-.185c1.3.093,2.59,0,3.886,0h3.7c.832,0,1.664-.095,1.848.555.092.554-.092,1.109,0,1.479,0,1.851-.185,3.791-.185,5.642v8.23c0,3.7-.093,7.4-.093,11v1.848l.093.555a13.848,13.848,0,0,0-.185,2.035c.092.924,0,2.313,0,3.422v3.329a2.517,2.517,0,0,1,0,.832l-.092.37c0,.555.185.927-.277,1.109a8.128,8.128,0,0,1-2.128,0c-2.772,0-5.732.092-8.414-.092-.647,0-.924.092-1.017-.554a6.036,6.036,0,0,0,0-1.294v-2.405c0-1.664,0-3.607.092-5.455,0-.462-.092-.924-.092-1.386.092-1.111,0-2.405.092-3.517v-1.016c0-.277-.092-.277,0-.555v-1.481c0-.275-.092-.554-.092-.829.092-.557.092-1.111.185-1.666,0-.832-.092-1.758-.092-2.59a17.08,17.08,0,0,0,.092-2.218l-.092-.462c0-.372.092-.462.092-.742a6.95,6.95,0,0,1,0-1.386C783.388,677.964,783.665,676.023,783.48,674.265Z" transform="translate(412.084 -0.278)" fill="#231f20"/>
      <path id="Path_2891" data-name="Path 2891" d="M829.981,678.316c-1.941-.092-4.346-.092-6.471-.092l-.37.092-.28-.092c-.277,0-.647.092-.924.092a19.34,19.34,0,0,0-2.313-.092h-3.789c-1.019,0-2.22-.092-3.422-.092-1.389,0-2.867.092-4.254.092a17.8,17.8,0,0,0-2.22,0,4.581,4.581,0,0,0-1.941,0,6.049,6.049,0,0,0,.275,2.218,11.6,11.6,0,0,0,1.389,2.59,12.322,12.322,0,0,0,2.865,2.5,25.142,25.142,0,0,0,3.794.832,11.978,11.978,0,0,0,3.142-.185c.279-.092.649-.092.927-.185.462-.185.832-.37,1.294-.554a5.5,5.5,0,0,0,1.666-1.2c1.2-.739,1.756-2.033,2.68-2.96.185-.459.372-.922.739-.922.554,0,1.2.647,1.481.922a1.526,1.526,0,0,1,1.109.649,7.1,7.1,0,0,1,1.943,1.294c1.017.277,1.479,1.2,2.5,1.481.275.555,1.571.739,1.386,1.478,0,.462-.927,1.386-1.2,1.756-.554.649-.832,1.111-1.294,1.666l-.554.462c-.462.554-1.019,1.016-1.479,1.481-.28.182-.554.37-.834.554a27.047,27.047,0,0,1-3.419,2.218c-.465.185-.834.37-1.3.555a33.543,33.543,0,0,1-3.976,1.3l-.554.185h-.555l-.37.092a30.26,30.26,0,0,1-5,.092c-1.109-.185-2.31-.555-3.422-.739l-.277-.185c-2.128-.462-3.7-1.573-5.455-2.405l-.092-.185-.37-.185a28.469,28.469,0,0,1-3.514-3.145c-.187-.185-.277-.462-.649-.554,0-.277-.367-.37-.367-.647a17.365,17.365,0,0,1-1.666-2.22l-.092-.277c-.832-.832-1.019-2.405-1.758-3.422-.182-1.109-.647-2.128-.832-3.145a12.609,12.609,0,0,1-.185-1.756l-.092-.37c-.185-.834,0-1.666-.185-2.5a1.276,1.276,0,0,0,0-.832c.185-.37,0-.742,0-1.109l.185-.372.092-.832-.092-.462a6.4,6.4,0,0,0,.277-.739,7.557,7.557,0,0,1,.649-2.59c.09-1.2.739-1.943,1.017-2.96a3.25,3.25,0,0,0,.462-.739l.092-.37.277-.277a6.13,6.13,0,0,1,.555-1.109l.277-.28c.185-.275.185-.555.462-.739a18.5,18.5,0,0,1,1.758-2.033l.277-.185a8.539,8.539,0,0,1,1.941-1.573,8.111,8.111,0,0,1,.926-.739l.462-.092c.277-.185.647-.37.924-.554a24.229,24.229,0,0,1,3.145-1.294c.37-.095.74-.28,1.109-.37.739-.185,1.386-.185,2.128-.372a41.833,41.833,0,0,1,4.9-.185c.37,0,.647-.092.924-.092l.462.185a20.554,20.554,0,0,1,4.253.739,9.965,9.965,0,0,1,1.758.742h.277a8.159,8.159,0,0,0,1.851.832,19.686,19.686,0,0,0,2.31,1.479,1.972,1.972,0,0,0,.647.555,3.933,3.933,0,0,0,.649.557l.367.277c.188.093.372.462.649.647a35.229,35.229,0,0,1,2.218,2.96,3.9,3.9,0,0,0,.557.647c.185.37.092.739.462.924a29.077,29.077,0,0,1,1.756,5.457c0,.462.277.924.277,1.294.092,1.294.37,2.68.37,4.069v1.2c0,.555.187,1.388-.277,1.758a16.828,16.828,0,0,1-3.052.092m-9.339-9.8c-.093-.462-.462-.924-.462-1.479a10.633,10.633,0,0,1-1.111-1.666c-.647-.462-1.017-1.2-1.941-1.386l-.185-.277a.624.624,0,0,1-.555-.37,10.782,10.782,0,0,0-2.59-.462c-.277,0-.554-.095-.832-.095a10.28,10.28,0,0,0-4.253.927,10.61,10.61,0,0,0-2.22,1.851,4.137,4.137,0,0,1-.554.647c-.37.462-.555.832-.924,1.386a5.793,5.793,0,0,0-.927,2.587c.372.372,1.2.28,1.851.372.739,0,1.479-.092,2.125-.092,1.389,0,2.683.185,4.069.092,1.943-.092,3.886.092,5.919.092a14.018,14.018,0,0,0,2.775-.185c.277-.372,0-.647-.092-1.109A2.566,2.566,0,0,0,820.642,668.513Z" transform="translate(425.441 11.763)" fill="#231f20"/>
      <path id="Path_2892" data-name="Path 2892" d="M839.041,672.843l.092-.37v-2.033a5.969,5.969,0,0,0-2.775-5.272,10.162,10.162,0,0,0-4.808-.647,9.417,9.417,0,0,0-1.573.277,8.31,8.31,0,0,0-2.218,1.109,8.222,8.222,0,0,0-1.943,2.036,5.53,5.53,0,0,0-.554,1.016c-.37,1.112-.37,2.22-.647,3.422l.093.462c-.093.927,0,2.128,0,3.329,0,.277-.093.462-.093.742-.092.275.093.554.093.829s-.093.557-.093.834c0,2.31-.092,4.716-.092,7.121,0,.185.092.37.092.647a6.218,6.218,0,0,1-.092,1.848c.185.372,0,1.019,0,1.574,0,.924.092,2.033.092,3.052a2.56,2.56,0,0,0-.092.832,2.85,2.85,0,0,1-.185,1.571c-1.666.095-3.7.095-5.642.095-.647,0-1.294-.095-1.941-.095l-.462.095a3.653,3.653,0,0,0-1.019,0,8.477,8.477,0,0,1-2.772-.28,5.851,5.851,0,0,1-.185-.647c.277-.37-.092-1.109.092-1.663-.185-.927.093-2.036-.092-2.96l.092-.555a1.906,1.906,0,0,1,0-1.019c-.092-2.5.093-4.623-.092-6.751a83.176,83.176,0,0,0,0-8.319l.185-.465c0-.277-.093-.554-.093-.832l.093-.647-.093-.555c0-1.388.093-2.775.093-4.161-.093-1.019.092-2.035,0-3.052,0-.557.092-1.2.092-1.851,0-.277-.092-.555-.092-.832,0-.832.092-1.664.092-2.5v-1.758c0-.832-.092-1.666.555-1.756a2.51,2.51,0,0,1,.832,0c1.294.09,2.682,0,4.069,0,1.479,0,2.867.09,4.163.09.832,0,2.31-.183,2.5.28.185.277.092.924.092,1.386v1.386c0,.465-.092.832.185,1.111a2.045,2.045,0,0,0,.926-.834,5.028,5.028,0,0,0,1.109-.832c.555-.462,1.2-.739,1.663-1.2.832-.37,1.573-.739,2.405-1.2.37.092.647-.182.924-.275a9.421,9.421,0,0,1,1.571-.372l.465-.185c1.016-.185,2.033-.185,3.144-.277a14.607,14.607,0,0,1,5.085.926c.462.182.739.37,1.2.555a9.658,9.658,0,0,1,1.666.924,3.047,3.047,0,0,0,.924.555,12.112,12.112,0,0,0,1.571,1.481c.277.46.647.832.924,1.294l.372.462.277.462.277.37a19.813,19.813,0,0,1,1.664,8.415c0,.462.092.742.092,1.109-.092,1.758-.092,3.794-.092,5.735v2.22c0,1.386,0,2.5-.092,3.884,0,.462.092.832.092,1.2-.092,2.405-.092,4.9-.092,7.213-.092,1.573,0,3.052-.185,4.623l-.37.277c-1.109,0-2.405-.092-3.514,0-2.033-.092-4.531,0-6.751-.092-.462-.09-.924.092-1.109-.185a5.9,5.9,0,0,1-.092-1.848,13.663,13.663,0,0,1,0-1.943c0-.277-.092-.554-.092-.832l.092-.462c.092-1.017,0-1.943,0-2.96v-.647c0-.924-.092-1.848,0-2.775,0-.185.092-.37.092-.647,0-.185-.092-.462-.092-.739v-4.531l.092-.462c0-.555-.092-1.2-.092-1.851a5.59,5.59,0,0,0,0-1.756c.185-.185,0-.557,0-.927" transform="translate(454.966 11.594)" fill="#231f20"/>
      <path id="Path_2893" data-name="Path 2893" d="M860.359,666.157c-.277-.28-.832-.37-1.109-.647a2.979,2.979,0,0,1-1.294-.372,2.6,2.6,0,0,1-1.2-.275c-1.017-.095-1.941-.187-2.865-.28l-.462.092a12.638,12.638,0,0,0-3.886,1.019,3.136,3.136,0,0,1-.924.555,10.866,10.866,0,0,0-3.607,4.253,9.535,9.535,0,0,1-.37.924,11.254,11.254,0,0,0-.462,4.346,13.112,13.112,0,0,0,2.59,6.566c.739.739,1.479,1.386,2.218,2.033a16.992,16.992,0,0,1,1.943.742l.462.092.37.185c.832.185,2.033.185,2.867.277H855a15.967,15.967,0,0,0,2.221-.37c.831-.185,1.479-.555,2.218-.647l.739-.372c.924-.182,1.3-.922,2.405-1.017.37.462,0,1.758.092,2.313-.092,1.017-.092,1.941-.092,2.96a13.522,13.522,0,0,0-.185,2.68,8.955,8.955,0,0,0-.093,2.22c-.277.647-.924.832-1.758,1.2a18.764,18.764,0,0,1-5.455,1.389,10.072,10.072,0,0,1-3.329.092l-.277.092a32.035,32.035,0,0,1-5.18-.924,1.677,1.677,0,0,0-1.017-.372,31.524,31.524,0,0,1-3.05-1.571,13.767,13.767,0,0,1-2.405-1.666c-.462-.275-.739-.737-1.2-.924-.28-.555-.834-.832-1.111-1.294l-.37-.277-.185-.277-.277-.185-.369-.554c-.462-.555-.832-1.3-1.294-1.943-.185-.277-.372-.462-.557-.739-.182-.462-.462-.924-.647-1.479a5.541,5.541,0,0,1-.739-1.481v-.185c-.093-.37-.277-.739-.37-1.109-.277-.832-.37-1.666-.647-2.405a34.286,34.286,0,0,1-.277-4.346c.092-.554.092-1.016.185-1.663l.092-.372-.092-.182.092-.187v-.37l.185-.185c.092-.462.092-.832.185-1.386a4.568,4.568,0,0,0,.37-1.2c.277-.832.647-1.479.924-2.218a2.892,2.892,0,0,1,.462-.924c.095-.277.187-.465.277-.742a3.248,3.248,0,0,0,.464-.739l.183-.37.372-.37.092-.37.185-.185.093-.277.554-.557.462-.554a6.292,6.292,0,0,0,1.017-1.2c.554-.277.834-.832,1.481-1.109.093-.277.462-.462.74-.647l.092-.187c.832-.554,1.574-1.109,2.4-1.569a1.585,1.585,0,0,0,.926-.557c1.294-.462,2.682-.924,3.976-1.386.37.092.832-.185,1.2-.28h.647a19.594,19.594,0,0,1,3.329-.367,25.739,25.739,0,0,1,6.659,1.109c.832.277,1.481.739,2.313,1.017a4.022,4.022,0,0,1,.554.647,43.728,43.728,0,0,0,.37,4.993,11.162,11.162,0,0,0,0,1.758l.092.37-.092.555c.092.554.37,1.666,0,2.22-.924-.092-1.294-.647-2.22-.832" transform="translate(482.819 12.363)" fill="#231f20"/>
      <path id="Path_2894" data-name="Path 2894" d="M885.927,678.316c-1.941-.092-4.346-.092-6.474-.092l-.367.092-.28-.092c-.277,0-.647.092-.924.092a19.357,19.357,0,0,0-2.313-.092h-3.792c-1.016,0-2.218-.092-3.422-.092-1.386,0-2.865.092-4.253.092a17.763,17.763,0,0,0-2.218,0,4.591,4.591,0,0,0-1.943,0,6.1,6.1,0,0,0,.277,2.218,11.575,11.575,0,0,0,1.386,2.59,12.386,12.386,0,0,0,2.867,2.5,25.175,25.175,0,0,0,3.791.832,11.992,11.992,0,0,0,3.144-.185c.28-.092.647-.092.927-.185.462-.185.832-.37,1.294-.554a5.454,5.454,0,0,0,1.664-1.2c1.2-.739,1.758-2.033,2.682-2.96.185-.459.37-.922.739-.922.554,0,1.2.647,1.481.922a1.525,1.525,0,0,1,1.109.649,7.126,7.126,0,0,1,1.941,1.294c1.019.277,1.481,1.2,2.5,1.481.277.555,1.573.739,1.389,1.478,0,.462-.926,1.386-1.2,1.756-.554.649-.832,1.111-1.294,1.666l-.555.462c-.464.554-1.019,1.016-1.481,1.481-.277.182-.555.37-.832.554a27.046,27.046,0,0,1-3.422,2.218c-.462.185-.832.37-1.294.555a33.526,33.526,0,0,1-3.976,1.3l-.555.185h-.557l-.37.092a30.221,30.221,0,0,1-4.993.092c-1.109-.185-2.31-.555-3.422-.739l-.277-.185c-2.128-.462-3.7-1.573-5.455-2.405l-.095-.185-.37-.185a28.824,28.824,0,0,1-3.514-3.145c-.182-.185-.275-.462-.647-.554,0-.277-.37-.37-.37-.647a17.538,17.538,0,0,1-1.663-2.22l-.093-.277c-.834-.832-1.019-2.405-1.758-3.422-.185-1.109-.647-2.128-.832-3.145a12.625,12.625,0,0,1-.185-1.756l-.092-.37c-.185-.834,0-1.666-.185-2.5a1.273,1.273,0,0,0,0-.832c.185-.37,0-.742,0-1.109l.185-.372.092-.832-.092-.462a6.361,6.361,0,0,0,.277-.739,7.611,7.611,0,0,1,.647-2.59c.092-1.2.742-1.943,1.017-2.96a3.249,3.249,0,0,0,.464-.739l.093-.37.277-.277a6.121,6.121,0,0,1,.554-1.109l.277-.28c.185-.275.185-.555.462-.739a18.505,18.505,0,0,1,1.756-2.033l.28-.185a8.538,8.538,0,0,1,1.941-1.573,8.055,8.055,0,0,1,.924-.739l.462-.092c.28-.185.649-.37.927-.554a24.216,24.216,0,0,1,3.144-1.294c.37-.095.739-.28,1.109-.37.739-.185,1.386-.185,2.125-.372a41.9,41.9,0,0,1,4.9-.185c.37,0,.647-.092.924-.092l.462.185a20.554,20.554,0,0,1,4.254.739,10.121,10.121,0,0,1,1.758.742h.277a8.141,8.141,0,0,0,1.848.832,19.937,19.937,0,0,0,2.313,1.479,1.975,1.975,0,0,0,.647.555,3.908,3.908,0,0,0,.647.557l.37.277c.185.093.372.462.647.647a34.746,34.746,0,0,1,2.221,2.96,4.015,4.015,0,0,0,.554.647c.185.37.095.739.462.924a29.094,29.094,0,0,1,1.758,5.457c0,.462.277.924.277,1.294.092,1.294.37,2.68.37,4.069v1.2c0,.555.185,1.388-.277,1.758a16.843,16.843,0,0,1-3.052.092m-9.339-9.8c-.093-.462-.462-.924-.462-1.479a10.45,10.45,0,0,1-1.112-1.666c-.647-.462-1.017-1.2-1.941-1.386l-.185-.277a.621.621,0,0,1-.554-.37,10.8,10.8,0,0,0-2.59-.462c-.277,0-.554-.095-.834-.095a10.288,10.288,0,0,0-4.253.927,10.65,10.65,0,0,0-2.218,1.851,4.148,4.148,0,0,1-.555.647c-.372.462-.554.832-.926,1.386a5.784,5.784,0,0,0-.924,2.587c.37.372,1.2.28,1.851.372.74,0,1.479-.092,2.126-.092,1.389,0,2.682.185,4.071.092,1.941-.092,3.881.092,5.917.092a14.032,14.032,0,0,0,2.775-.185c.277-.372,0-.647-.092-1.109A2.569,2.569,0,0,0,876.589,668.513Z" transform="translate(505.553 11.763)" fill="#231f20"/>
    </g>
  </g>
</svg>
